<?xml version="1.0" encoding="utf-8"?>
<!-- Generator: Adobe Illustrator 23.0.2, SVG Export Plug-In . SVG Version: 6.00 Build 0)  -->
<svg version="1.1" id="Слой_1" xmlns="http://www.w3.org/2000/svg" xmlns:xlink="http://www.w3.org/1999/xlink" x="0px" y="0px"
	 viewBox="0 0 200 200" style="enable-background:new 0 0 200 200;" xml:space="preserve">
<style type="text/css">
	.st0{display:none;fill:url(#SVGID_1_);}
	.st1{opacity:0.4;fill:#D1D3D4;}
	.st2{fill:#FFFFFF;}
	.st3{fill:url(#SVGID_2_);}
	.st4{fill:#E6E7E8;}
	.st5{fill:#414042;}
	.st6{fill:#6D6E71;}
	.st7{fill:#231F20;}
	.st8{opacity:0.3;fill:url(#SVGID_3_);}
	.st9{opacity:0.2;fill:url(#SVGID_4_);}
	.st10{opacity:0.1;fill:url(#SVGID_5_);}
	.st11{fill:#A7A9AC;}
	.st12{fill:url(#SVGID_6_);}
	.st13{fill:#F6428D;}
	.st14{fill:#CC1F5E;}
	.st15{fill:#E01E68;}
	.st16{fill:url(#SVGID_7_);}
	.st17{fill:url(#SVGID_8_);}
	.st18{fill:url(#SVGID_9_);}
	.st19{fill:url(#SVGID_10_);}
	.st20{opacity:0.5;fill:#FFFFFF;}
	.st21{opacity:0.2;fill:#FFFFFF;}
	.st22{opacity:0.3;}
	.st23{fill:#76DB26;}
	.st24{fill:#ED1C24;}
	.st25{fill:#58DFEC;}
	.st26{opacity:0.8;fill:#FFFFFF;}
	.st27{opacity:0.9;}
	.st28{fill:#163FA1;}
	.st29{fill:url(#SVGID_11_);}
	.st30{opacity:0.5;fill:#FCF586;}
	.st31{opacity:0.8;}
	.st32{fill:url(#SVGID_12_);}
	.st33{fill:url(#SVGID_13_);}
	.st34{fill:url(#SVGID_14_);}
	.st35{fill:url(#SVGID_15_);}
	.st36{fill:url(#SVGID_16_);}
	.st37{fill:url(#SVGID_17_);}
	.st38{fill:url(#SVGID_18_);}
	.st39{fill:url(#SVGID_19_);}
	.st40{fill:url(#SVGID_20_);}
	.st41{fill:url(#SVGID_21_);}
	.st42{display:none;opacity:0.8;}
	.st43{display:inline;fill:#FFFFFF;}
	.st44{opacity:0.6;fill:#58DFEC;}
	.st45{opacity:0.4;fill:#58DFEC;}
	.st46{opacity:0.2;fill:#58DFEC;}
</style>
<g>
	<linearGradient id="SVGID_1_" gradientUnits="userSpaceOnUse" x1="-2.500000e-04" y1="200.0007" x2="200.0002" y2="2.500000e-04">
		<stop  offset="0" style="stop-color:#2AA9CE"/>
		<stop  offset="1" style="stop-color:#8437A0"/>
	</linearGradient>
	<rect class="st0" width="200" height="200"/>
	<g>
		<path class="st1" d="M172.11,125.29v0.63L91.2,79.2c-2.59-1.5-6.8-1.5-9.39,0l-37.74,21.79v-0.46h-3.98v4.21h0.01
			c-0.06,1.03,0.58,2.06,1.93,2.85l82.43,47.59c2.59,1.5,6.8,1.5,9.39,0l39.78-22.97c1.26-0.72,1.9-1.67,1.94-2.62h0.01v-4.3H172.11
			z"/>
		<path class="st2" d="M173.63,122.59c2.59,1.5,2.59,3.92,0,5.42l-39.78,22.97c-2.59,1.5-6.8,1.5-9.39,0l-82.43-47.59
			c-2.59-1.5-2.59-3.93,0-5.42L81.81,75c2.59-1.5,6.8-1.5,9.39,0L173.63,122.59z"/>
		<linearGradient id="SVGID_2_" gradientUnits="userSpaceOnUse" x1="67.3697" y1="147.1835" x2="145.8498" y2="75.1842">
			<stop  offset="0" style="stop-color:#2AA9CE"/>
			<stop  offset="1" style="stop-color:#EF73DB"/>
		</linearGradient>
		<polygon class="st3" points="163.42,119.3 118.76,145.08 48.33,104.42 92.99,78.63 		"/>
		<ellipse class="st4" cx="147.55" cy="135.92" rx="6.51" ry="3.76"/>
		<path class="st4" d="M165.69,124.79c1.03,0.59,1.03,1.55,0,2.14l-8.6,4.97l-3.72-2.15l8.6-4.97
			C162.99,124.19,164.66,124.19,165.69,124.79z"/>
		<path class="st4" d="M128.26,146.39c-1.02-0.59-1.02-1.55,0-2.15l8.6-4.97l3.72,2.15l-8.6,4.97
			C130.96,146.99,129.3,146.99,128.26,146.39z"/>
		<path class="st4" d="M73.1,85.33c0.56,0.32,0.56,0.85,0,1.17l-12.85,7.42c-0.56,0.32-1.46,0.32-2.02,0l0,0
			c-0.56-0.32-0.56-0.84,0-1.17l12.85-7.42C71.64,85.01,72.55,85.01,73.1,85.33L73.1,85.33z"/>
		<path class="st5" d="M87.03,77.44c1.29,0.75,1.46,1.89,0.5,2.74l-0.01,0.01c-0.14,0.12-0.3,0.24-0.49,0.34
			c-0.11,0.06-0.23,0.12-0.34,0.17c-0.25,0.12-0.53,0.22-0.83,0.29c-0.69,0.18-1.46,0.23-2.19,0.15c-0.73-0.08-1.44-0.28-2-0.61
			c-1.48-0.86-1.49-2.24,0-3.1c0.19-0.11,0.4-0.2,0.61-0.29c0.64-0.24,1.39-0.36,2.12-0.34c0.33,0,0.64,0.03,0.96,0.07
			c0.39,0.07,0.77,0.17,1.12,0.3C86.68,77.25,86.85,77.34,87.03,77.44z"/>
		<path class="st6" d="M84.4,76.8l1.46,4.19c-0.69,0.18-1.46,0.23-2.19,0.15l-1.39-3.99C82.92,76.9,83.67,76.79,84.4,76.8z"/>
		<path class="st6" d="M86.48,77.17l1.05,3.01l-0.01,0.01c-0.14,0.12-0.3,0.24-0.49,0.34c-0.11,0.06-0.23,0.12-0.34,0.17l-1.33-3.83
			C85.75,76.94,86.13,77.04,86.48,77.17z"/>
		<path class="st7" d="M85.81,78.14c0.71,0.41,0.8,1.03,0.27,1.49l-0.01,0c-0.08,0.07-0.16,0.13-0.26,0.19
			c-0.06,0.04-0.13,0.07-0.19,0.09c-0.14,0.07-0.29,0.12-0.45,0.16c-0.37,0.1-0.8,0.13-1.2,0.08c-0.4-0.04-0.78-0.15-1.09-0.33
			c-0.81-0.47-0.81-1.22,0-1.69c0.1-0.06,0.22-0.11,0.33-0.16c0.35-0.13,0.76-0.19,1.16-0.19c0.18,0,0.35,0.01,0.53,0.04
			c0.21,0.04,0.42,0.09,0.61,0.16C85.62,78.04,85.71,78.08,85.81,78.14z"/>
	</g>
	<g>
		<linearGradient id="SVGID_3_" gradientUnits="userSpaceOnUse" x1="75.9594" y1="114.4801" x2="139.7025" y2="114.4801">
			<stop  offset="0" style="stop-color:#2AA9CE"/>
			<stop  offset="1" style="stop-color:#EF73DB"/>
		</linearGradient>
		<path class="st8" d="M138.72,116.51l-20.67-11.94l-13.73-7.92c-1.39-0.81-3.66-0.81-5.06,0l-0.38,0.22l-21.92,12.65
			c-1.29,0.74-1.39,2.12,0,2.92l34.41,19.86c1.39,0.81,3.65,0.81,5.06,0l22.29-12.87C140.06,118.46,140,117.19,138.72,116.51z"/>
		<linearGradient id="SVGID_4_" gradientUnits="userSpaceOnUse" x1="75.9411" y1="119.738" x2="139.685" y2="119.738">
			<stop  offset="0" style="stop-color:#2AA9CE"/>
			<stop  offset="1" style="stop-color:#EF73DB"/>
		</linearGradient>
		<path class="st9" d="M138.71,121.77l-20.67-11.94l-13.73-7.92c-1.39-0.81-3.66-0.81-5.06,0l-0.38,0.22l-21.92,12.65
			c-1.29,0.74-1.39,2.12,0,2.92l34.41,19.86c1.39,0.8,3.65,0.8,5.06,0l22.29-12.87C140.04,123.72,139.98,122.45,138.71,121.77z"/>
		<linearGradient id="SVGID_5_" gradientUnits="userSpaceOnUse" x1="75.9411" y1="124.9896" x2="139.685" y2="124.9896">
			<stop  offset="0" style="stop-color:#2AA9CE"/>
			<stop  offset="1" style="stop-color:#EF73DB"/>
		</linearGradient>
		<path class="st10" d="M138.71,127.02l-20.67-11.94l-13.73-7.92c-1.39-0.81-3.66-0.81-5.06,0l-0.38,0.22l-21.92,12.65
			c-1.29,0.73-1.39,2.11,0,2.92l34.41,19.86c1.39,0.81,3.65,0.81,5.06,0l22.29-12.87C140.04,128.97,139.98,127.7,138.71,127.02z"/>
		<g>
			<path class="st11" d="M109.25,73.84c-0.55,0-1-0.45-1-1v-4.45c0-1.18-1.37-4.25-2.47-6.72c-2.15-4.82-2.83-6.59-2.02-7.62
				c0.63-0.8,1.79-0.73,3.03,0.17c0.91,0.66,0.56,1.34,0.43,1.53c-0.09,0.14-0.6,0.78-1.54,0.21c-0.04-0.02-0.07-0.05-0.11-0.08
				c0.36,1.24,1.34,3.41,2.03,4.97c1.36,3.05,2.65,5.93,2.65,7.54v4.45C110.25,73.39,109.8,73.84,109.25,73.84z"/>
		</g>
		<linearGradient id="SVGID_6_" gradientUnits="userSpaceOnUse" x1="73.5586" y1="91.334" x2="142.8195" y2="91.334">
			<stop  offset="0.249" style="stop-color:#DF1E68"/>
			<stop  offset="1" style="stop-color:#CC1F5E"/>
		</linearGradient>
		<path class="st12" d="M142.1,89.86c-0.05-0.06-0.16-0.17-0.37-0.29l-38.64-22.31c-0.52-0.3-1.27-0.47-2.06-0.47
			c-0.79,0-1.54,0.17-2.06,0.47L73.92,81.72c-0.09,0.05-0.15,0.1-0.2,0.14l-0.01-0.01v0.02c-0.07,0.06-0.12,0.11-0.15,0.14
			l0.17,0.89l0.17,8.05l4.2,19.26l21.75-13.35c1.3-0.75,3.41-0.75,4.71,0l32.87,19.02l5.37-24.54
			C143.01,91.21,142.06,89.91,142.1,89.86z M79.09,89.63c0.95-0.51,1.88-0.64,2.59-0.43c0.7,0.2,1.2,0.71,1.32,1.49l0.81,4.8
			l-6.31,3.54l-1.24-5.76C76.48,91.93,77.57,90.45,79.09,89.63z M82.42,105.5c-0.78,0.47-1.54,0.67-2.14,0.62
			c-0.61-0.05-1.06-0.37-1.21-0.94l-1.01-3.97l6.13-3.51l0.68,4.06C85.05,102.92,83.96,104.57,82.42,105.5z M86.14,88.98
			c-0.2-1.58,1.1-3.69,2.89-4.66c0.89-0.47,1.71-0.56,2.32-0.31c0.6,0.23,0.99,0.77,1.03,1.57l0.27,4.91l-5.9,3.33L86.14,88.98z
			 M90.52,100.65c-0.74,0.44-1.43,0.61-1.96,0.52c-0.54-0.08-0.92-0.42-0.99-1.02l-0.52-4.11l5.74-3.29l0.23,4.19
			C93.09,98.15,91.97,99.78,90.52,100.65z M100.71,92.42c-0.05,1.23-1.18,2.85-2.56,3.67c-0.69,0.41-1.32,0.55-1.79,0.45
			c-0.46-0.11-0.77-0.49-0.77-1.1l-0.1-4.22l5.38-3.08L100.71,92.42z M100.96,85.82l-5.53,3.11l-0.12-4.94
			c-0.04-1.61,1.3-3.7,2.97-4.59c0.84-0.45,1.57-0.49,2.08-0.22c0.52,0.25,0.81,0.82,0.78,1.64L100.96,85.82z M108.44,95.02
			c-0.08,1.26-1.2,1.64-2.5,0.88c-0.65-0.38-1.22-0.98-1.62-1.63c-0.41-0.66-0.66-1.38-0.63-2.03l0.16-4.3l4.88,2.82L108.44,95.02z
			 M108.86,88.52l-4.94-2.83l0.16-4.66c0.05-1.46,1.24-2.03,2.65-1.24c0.71,0.39,1.35,1.06,1.78,1.82c0.45,0.74,0.69,1.56,0.64,2.29
			L108.86,88.52z M115.18,98.95c-0.13,1.25-1.32,1.6-2.65,0.83c-0.67-0.4-1.24-0.99-1.64-1.65c-0.41-0.66-0.63-1.38-0.58-2.02
			l0.32-4.25l4.99,2.88L115.18,98.95z M116.37,87.97l-0.49,4.56l-5.06-2.9l0.35-4.6c0.11-1.45,1.38-1.99,2.83-1.17
			c0.73,0.41,1.36,1.08,1.8,1.84C116.22,86.43,116.44,87.25,116.37,87.97z M122.08,102.99c-0.2,1.24-1.45,1.56-2.81,0.76
			c-0.67-0.4-1.25-1.01-1.65-1.67c-0.39-0.66-0.6-1.38-0.53-2l0.51-4.2l5.12,2.96L122.08,102.99z M123.75,92.15l-0.7,4.51
			l-5.19-2.97l0.55-4.55c0.17-1.43,1.52-1.95,3-1.11c0.76,0.42,1.39,1.1,1.81,1.85C123.66,90.62,123.86,91.44,123.75,92.15z
			 M129.14,107.12c-0.24,1.22-1.57,1.51-2.97,0.69c-0.7-0.41-1.28-1.02-1.67-1.67c-0.38-0.66-0.57-1.38-0.46-2l0.7-4.14l5.24,3.03
			L129.14,107.12z M125.1,97.84l0.76-4.5c0.23-1.42,1.66-1.9,3.19-1.04c0.77,0.43,1.42,1.12,1.82,1.87c0.42,0.75,0.6,1.57,0.45,2.26
			l-0.91,4.45L125.1,97.84z M136.38,111.36c-0.3,1.2-1.71,1.46-3.13,0.63c-0.72-0.42-1.31-1.04-1.67-1.7
			c-0.38-0.66-0.56-1.37-0.42-1.98l0.9-4.09l5.37,3.11L136.38,111.36z M139.1,100.82l-1.13,4.38l-5.45-3.12l0.97-4.44
			c0.31-1.4,1.83-1.85,3.4-0.96c0.79,0.45,1.43,1.13,1.84,1.89C139.12,99.32,139.28,100.14,139.1,100.82z"/>
		<path class="st13" d="M82.42,105.5c-0.78,0.47-1.54,0.67-2.14,0.62c-0.6-0.05-1.05-0.36-1.21-0.92c0.22,0.21,0.52,0.33,0.89,0.37
			c0.61,0.05,1.38-0.15,2.17-0.62c1.56-0.92,2.66-2.58,2.46-3.74l-0.58-3.42l0.16-0.09l0.68,4.06
			C85.05,102.92,83.96,104.57,82.42,105.5z"/>
		<path class="st13" d="M83.81,95.49l-6.31,3.54l-0.14-0.66l6.17-3.43l-0.81-4.8c-0.02-0.11-0.04-0.2-0.07-0.3
			c0.18,0.23,0.3,0.52,0.36,0.85L83.81,95.49z"/>
		<path class="st13" d="M93.02,96.95c0.07,1.2-1.05,2.83-2.5,3.7c-0.74,0.44-1.43,0.61-1.96,0.52c-0.52-0.08-0.88-0.39-0.98-0.95
			c0.17,0.22,0.43,0.35,0.74,0.4c0.53,0.09,1.24-0.09,1.98-0.53c1.46-0.87,2.59-2.5,2.52-3.7l-0.2-3.55l0.16-0.09L93.02,96.95z"/>
		<path class="st13" d="M92.66,90.5l-5.9,3.33l-0.08-0.64l5.78-3.23l-0.27-4.91c-0.01-0.12-0.02-0.23-0.04-0.33
			c0.14,0.24,0.22,0.54,0.23,0.88L92.66,90.5z"/>
		<path class="st13" d="M100.87,88.14l-0.16,4.28c-0.05,1.23-1.18,2.85-2.56,3.67c-0.69,0.41-1.32,0.55-1.79,0.45
			c-0.43-0.1-0.73-0.44-0.77-0.98c0.13,0.23,0.34,0.37,0.61,0.43c0.48,0.11,1.11-0.03,1.81-0.45c1.39-0.82,2.54-2.44,2.58-3.67
			l0.14-3.65L100.87,88.14z"/>
		<path class="st13" d="M101.14,80.82l-0.19,4.99l-5.53,3.11l-0.01-0.63l5.43-3.03l0.19-4.99c0.01-0.11,0-0.22-0.01-0.32
			C101.11,80.2,101.16,80.49,101.14,80.82z"/>
		<path class="st13" d="M108.72,90.75l-0.28,4.27c-0.08,1.26-1.2,1.64-2.5,0.88c-0.65-0.38-1.22-0.98-1.62-1.63
			c-0.36-0.56-0.59-1.19-0.63-1.77c0.11,0.41,0.29,0.83,0.55,1.22c0.4,0.65,0.98,1.25,1.64,1.63c1.31,0.77,2.44,0.38,2.52-0.88
			l0.25-3.76L108.72,90.75z"/>
		<path class="st13" d="M109.16,83.91l-0.3,4.62l-4.94-2.83l0.02-0.49l4.89,2.78l0.3-4.62v-0.08
			C109.16,83.49,109.17,83.7,109.16,83.91z"/>
		<path class="st13" d="M116.38,87.65c0,0.11-0.01,0.22-0.02,0.32l-0.49,4.56l-5.06-2.9l0.04-0.52l5.05,2.87L116.38,87.65z"/>
		<path class="st13" d="M115.63,94.74l-0.45,4.21c-0.13,1.25-1.32,1.6-2.65,0.83c-0.67-0.4-1.24-0.99-1.64-1.65
			c-0.41-0.66-0.63-1.38-0.58-2.01c0.07,0.48,0.27,0.99,0.56,1.46c0.41,0.66,0.98,1.25,1.65,1.65c1.34,0.77,2.54,0.42,2.68-0.83
			l0.4-3.68L115.63,94.74z"/>
		<path class="st13" d="M122.14,102.57l-0.06,0.42c-0.2,1.24-1.45,1.56-2.81,0.76c-0.67-0.4-1.25-1.01-1.65-1.67
			c-0.39-0.66-0.6-1.38-0.53-2l0.03-0.27c0.01,0.56,0.21,1.16,0.55,1.72c0.4,0.66,0.99,1.27,1.67,1.67
			C120.66,103.97,121.89,103.71,122.14,102.57z"/>
		<polygon class="st13" points="123.14,96.11 123.06,96.66 117.87,93.69 117.93,93.15 		"/>
		<path class="st13" d="M130.54,100.3l-0.12,0.58l-5.32-3.04l0.76-4.5c0.02-0.13,0.05-0.26,0.1-0.38l-0.74,4.33L130.54,100.3z"/>
		<path class="st13" d="M129.18,106.94l-0.04,0.18c-0.24,1.22-1.57,1.51-2.97,0.69c-0.7-0.41-1.28-1.02-1.67-1.67
			c-0.38-0.66-0.57-1.38-0.46-2l0.7-4.14l0.02,0.02l-0.6,3.58c-0.12,0.62,0.08,1.34,0.46,2c0.4,0.66,0.98,1.27,1.68,1.68
			C127.55,107.99,128.76,107.84,129.18,106.94z"/>
		<path class="st13" d="M136.39,111.29l-0.02,0.06c-0.3,1.2-1.71,1.46-3.13,0.63c-0.72-0.42-1.31-1.04-1.67-1.7
			c-0.38-0.66-0.56-1.37-0.42-1.98l0.9-4.09l0.06,0.04l-0.78,3.5c-0.13,0.61,0.04,1.32,0.43,1.98c0.37,0.66,0.96,1.28,1.69,1.7
			C134.66,112.14,135.86,112.06,136.39,111.29z"/>
		<path class="st13" d="M138.12,104.6l-0.16,0.6l-5.45-3.12l0.97-4.44c0.04-0.19,0.1-0.36,0.2-0.52l-0.97,4.41L138.12,104.6z"/>
		<path class="st14" d="M136.59,118.08l-20.77,11.99c-1.31,0.75-3.41,0.75-4.71,0l-32.05-18.5c-1.3-0.75-1.2-2.04,0-2.72
			l20.42-11.79l13.08,7.55c0.52,0.3,1.27,0.47,2.06,0.47c0.79,0,1.54-0.17,2.06-0.47l0.65-0.38l19.26,11.12
			C137.78,115.99,137.84,117.17,136.59,118.08z"/>
		<path class="st15" d="M104.55,96.86c-1.3-0.75-3.41-0.75-4.71,0l-0.35,0.2l13.08,7.55c0.52,0.3,1.27,0.47,2.06,0.47
			c0.79,0,1.54-0.17,2.06-0.47l0.65-0.38L104.55,96.86z"/>
		<path class="st14" d="M117.33,104.24l-0.65,0.38c-0.52,0.3-1.27,0.47-2.06,0.47c-0.79,0-1.54-0.17-2.06-0.47l-13.08-7.55l0.35-0.2
			c1.3-0.75,3.41-0.75,4.71,0L117.33,104.24z"/>
		<linearGradient id="SVGID_7_" gradientUnits="userSpaceOnUse" x1="73.1357" y1="110.5715" x2="142.5176" y2="110.5715">
			<stop  offset="0" style="stop-color:#E01E68"/>
			<stop  offset="0.3124" style="stop-color:#E1206A"/>
			<stop  offset="0.4335" style="stop-color:#E52671"/>
			<stop  offset="0.5212" style="stop-color:#EC327D"/>
			<stop  offset="0.5217" style="stop-color:#EC327D"/>
			<stop  offset="0.7554" style="stop-color:#DA276B"/>
			<stop  offset="0.9921" style="stop-color:#CC1F5E"/>
		</linearGradient>
		<path class="st16" d="M117.47,112.82c-1.57,0.91-4.12,0.91-5.68,0L73.14,90.51l0.29,1.14l4.66,18.55c0.11,0.5,0.32,0.99,0.97,1.36
			l32.05,18.5c1.3,0.75,3.4,0.75,4.71,0l20.77-11.99c0.63-0.37,0.8-0.88,0.97-1.38l4.64-17.18l0.31-1.16L117.47,112.82z
			 M75.16,95.08c-0.31-1.29,0.18-1.96,1.15-1.76c0.29,0.06,0.62,0.2,0.99,0.41c0.31,0.19,0.63,0.42,0.94,0.7
			c0.47,0.41,0.92,0.9,1.3,1.42c0.64,0.85,1.12,1.78,1.29,2.6l1.1,5.12l-5.47-3.24L75.16,95.08z M81.39,111.54
			c-0.7-0.41-1.4-1.06-1.96-1.77c-0.58-0.72-1.03-1.51-1.2-2.21l-1.16-4.73l5.37,3.18l0.99,4.62
			C83.72,111.99,82.8,112.38,81.39,111.54z M83.04,99.76c-0.32-1.57,0.64-2.16,2.16-1.31l0.23,0.14c0.75,0.47,1.49,1.2,2.07,2
			c0.59,0.83,1.03,1.74,1.17,2.52l0.81,4.94l-5.43-3.21L83.04,99.76z M88.47,115.71c-0.71-0.42-1.39-1.05-1.93-1.74
			c-0.55-0.7-0.96-1.48-1.09-2.15l-0.92-4.57l5.34,3.16l0.74,4.45C90.82,116.17,89.86,116.53,88.47,115.71z M90.85,104.41
			c-0.24-1.56,0.84-2.1,2.41-1.16c0.8,0.47,1.55,1.21,2.11,2.03c0.58,0.81,0.97,1.69,1.06,2.44l0.55,4.77l-5.39-3.19L90.85,104.41z
			 M95.47,119.84c-0.69-0.41-1.35-1.03-1.88-1.71c-0.52-0.68-0.88-1.43-0.99-2.08l-0.66-4.41l5.3,3.14l0.49,4.3
			C97.87,120.33,96.86,120.66,95.47,119.84z M98.59,109.02c-0.15-1.5,0.99-2,2.56-1.07c0.77,0.46,1.51,1.2,2.05,2
			c0.54,0.79,0.89,1.64,0.94,2.37l0.28,4.59l-5.35-3.17L98.59,109.02z M102.44,123.94c-0.69-0.41-1.34-1.02-1.83-1.68
			c-0.49-0.67-0.83-1.4-0.89-2.02l-0.42-4.25l5.26,3.11l0.25,4.14C104.88,124.46,103.82,124.76,102.44,123.94z M106.29,113.6
			c-0.06-1.45,1.14-1.89,2.69-0.97c0.78,0.46,1.48,1.17,2,1.96c0.5,0.77,0.81,1.59,0.81,2.29l0.02,4.42l-5.32-3.15L106.29,113.6z
			 M109.38,128.03c-0.7-0.41-1.32-1.01-1.79-1.65c-0.48-0.66-0.78-1.36-0.81-1.97l-0.19-4.09l5.23,3.09l0.02,3.98
			C111.84,128.56,110.74,128.83,109.38,128.03z M121.32,123.94c-0.12,1.13-1.3,2.64-2.65,3.39c-0.67,0.38-1.26,0.49-1.68,0.39
			c-0.42-0.1-0.66-0.44-0.64-0.99l0.17-3.74l5.19-2.95L121.32,123.94z M121.91,117.96l-5.31,3.03l0.2-4.25
			c0.06-1.37,1.37-3.25,2.93-4.17c0.78-0.45,1.48-0.58,1.95-0.4c0.47,0.17,0.73,0.63,0.66,1.35L121.91,117.96z M128.91,119.68
			c-0.2,1.21-1.5,2.79-2.9,3.56c-0.7,0.39-1.29,0.51-1.69,0.39c-0.42-0.11-0.63-0.47-0.56-1.06l0.49-3.98l5.37-3.05L128.91,119.68z
			 M130.83,108.57l-0.82,4.73l-5.49,3.15l0.55-4.53c0.17-1.37,1.46-3.21,2.97-4.23l0.11-0.07c0.06-0.04,0.13-0.08,0.2-0.12
			c0.07-0.04,0.14-0.08,0.21-0.12l0.03-0.01c0.71-0.37,1.31-0.44,1.71-0.26C130.76,107.31,130.97,107.81,130.83,108.57z
			 M136.77,115.29c-0.31,1.28-1.73,2.94-3.17,3.74c-0.72,0.4-1.31,0.52-1.71,0.38c-0.38-0.13-0.56-0.52-0.45-1.14l0.83-4.24
			l5.56-3.16L136.77,115.29z M139.25,101.88c0.43,0.21,0.59,0.75,0.39,1.56l-1.22,5.05l-5.7,3.26l0.95-4.84
			c0.26-1.31,1.43-3,2.79-4.09c0.26-0.21,0.53-0.41,0.81-0.56c0.3-0.18,0.59-0.31,0.85-0.39
			C138.6,101.73,138.98,101.73,139.25,101.88z"/>
		<path class="st13" d="M83.46,111.29c-0.12,0.8-0.93,0.93-2.07,0.25c-0.7-0.41-1.4-1.06-1.96-1.77c-0.58-0.72-1.03-1.51-1.2-2.21
			l-1.16-4.73l0.61,0.36l0.92,3.81c0.17,0.71,0.61,1.5,1.18,2.21c0.56,0.71,1.24,1.36,1.94,1.77
			C82.5,111.45,83.11,111.54,83.46,111.29z"/>
		<path class="st13" d="M81.92,103.57l-5.47-3.24l-1.29-5.25c-0.21-0.88-0.05-1.46,0.38-1.68c-0.09,0.29-0.07,0.67,0.04,1.13
			l1.28,5.25l4.88,2.94L81.92,103.57z"/>
		<path class="st13" d="M89.48,108.05l-5.43-3.21l-1.01-5.07c-0.15-0.72-0.02-1.23,0.3-1.49c-0.06,0.25-0.05,0.56,0.02,0.93
			l0.99,5.07l5.01,3L89.48,108.05z"/>
		<path class="st13" d="M90.63,115.36c-0.08,0.89-0.96,1.06-2.16,0.35c-0.71-0.42-1.39-1.05-1.93-1.74
			c-0.55-0.7-0.96-1.48-1.09-2.15l-0.92-4.57l0.46,0.27l0.73,3.74c0.13,0.67,0.53,1.45,1.08,2.15c0.53,0.69,1.21,1.32,1.9,1.74
			C89.58,115.67,90.28,115.72,90.63,115.36z"/>
		<path class="st13" d="M97.75,119.32c-0.02,1.05-0.98,1.29-2.28,0.52c-0.69-0.41-1.35-1.03-1.88-1.71
			c-0.52-0.68-0.88-1.43-0.99-2.08l-0.66-4.41l0.31,0.19l0.55,3.67c0.1,0.65,0.46,1.4,0.97,2.08c0.52,0.68,1.17,1.31,1.86,1.71
			C96.64,119.89,97.44,119.86,97.75,119.32z"/>
		<path class="st13" d="M96.97,112.49l-5.39-3.19l-0.73-4.89c-0.08-0.54-0.01-0.96,0.2-1.24c-0.02,0.2-0.02,0.42,0.02,0.68
			l0.72,4.89l5.11,3.06L96.97,112.49z"/>
		<path class="st13" d="M104.42,116.91l-5.35-3.17l-0.48-4.72c-0.04-0.37,0.01-0.68,0.11-0.92c-0.01,0.11-0.01,0.24,0.01,0.36
			l0.47,4.72l5.2,3.12L104.42,116.91z"/>
		<path class="st13" d="M104.81,123.18v0.05c0.08,1.22-0.99,1.52-2.36,0.71c-0.69-0.41-1.34-1.02-1.83-1.68
			c-0.49-0.67-0.83-1.4-0.89-2.02l-0.42-4.25l0.17,0.1l0.35,3.59c0.06,0.63,0.4,1.35,0.88,2.02c0.49,0.67,1.13,1.28,1.81,1.68
			C103.66,124.07,104.59,123.96,104.81,123.18z"/>
		<path class="st13" d="M111.84,127.39c0,1.17-1.1,1.45-2.46,0.64c-0.7-0.41-1.32-1.01-1.79-1.65c-0.48-0.66-0.78-1.36-0.81-1.97
			l-0.19-4.09l0.04,0.02l0.17,3.51c0.02,0.61,0.33,1.32,0.8,1.97c0.45,0.64,1.07,1.24,1.76,1.65c1.35,0.81,2.43,0.53,2.43-0.64
			l-0.02-3.45l0.05,0.03L111.84,127.39z"/>
		<path class="st13" d="M111.82,121.3l-5.32-3.15l-0.2-4.55c-0.01-0.16,0-0.31,0.03-0.44l0.2,4.43l5.25,3.15l-0.02-4.35
			c0.03,0.17,0.05,0.33,0.05,0.49L111.82,121.3z"/>
		<path class="st13" d="M121.7,120.04l-0.38,3.9c-0.12,1.13-1.3,2.64-2.65,3.39c-0.67,0.38-1.26,0.49-1.68,0.39
			c-0.41-0.1-0.66-0.43-0.64-0.97c0.1,0.22,0.29,0.36,0.53,0.42c0.42,0.1,0.99-0.01,1.66-0.39c1.34-0.75,2.5-2.25,2.62-3.39
			l0.3-3.21L121.7,120.04z"/>
		<path class="st13" d="M122.35,113.51l-0.44,4.45l-5.31,3.03l0.03-0.63l5.1-2.96l0.43-4.44c0.02-0.14,0.02-0.28,0-0.4
			C122.33,112.79,122.39,113.11,122.35,113.51z"/>
		<path class="st13" d="M129.63,115.54l-0.72,4.15c-0.2,1.21-1.5,2.79-2.9,3.56c-0.7,0.39-1.29,0.51-1.69,0.39
			c-0.34-0.09-0.55-0.35-0.57-0.78c0.1,0.11,0.22,0.18,0.37,0.22c0.4,0.13,0.99,0.01,1.67-0.38c1.38-0.77,2.66-2.35,2.86-3.56
			l0.58-3.37L129.63,115.54z"/>
		<path class="st13" d="M130.83,108.57l-0.82,4.73l-5.49,3.15l0.09-0.73l5.12-2.97l0.81-4.74c0.05-0.28,0.05-0.53,0.01-0.73
			C130.83,107.53,130.94,107.97,130.83,108.57z"/>
		<path class="st13" d="M137.84,110.87l-1.07,4.42c-0.31,1.28-1.73,2.94-3.17,3.74c-0.72,0.4-1.31,0.52-1.71,0.38
			c-0.27-0.09-0.44-0.31-0.48-0.65c0.05,0.04,0.12,0.07,0.18,0.09c0.38,0.13,0.97,0.02,1.68-0.38c1.42-0.8,2.83-2.46,3.13-3.74
			l0.85-3.54L137.84,110.87z"/>
		<path class="st13" d="M139.64,103.45l-1.22,5.05l-5.7,3.26l0.16-0.83l5.16-2.99l1.21-5.05c0.09-0.39,0.11-0.73,0.05-0.99
			C139.69,102.13,139.83,102.66,139.64,103.45z"/>
		<linearGradient id="SVGID_8_" gradientUnits="userSpaceOnUse" x1="71.9619" y1="97.7566" x2="143.6992" y2="97.7566">
			<stop  offset="0" style="stop-color:#E01E68"/>
			<stop  offset="0.3142" style="stop-color:#E1206A"/>
			<stop  offset="0.4361" style="stop-color:#E52771"/>
			<stop  offset="0.5244" style="stop-color:#EC327D"/>
			<stop  offset="0.5929" style="stop-color:#F6428D"/>
			<stop  offset="0.6029" style="stop-color:#F23F89"/>
			<stop  offset="0.6644" style="stop-color:#E13176"/>
			<stop  offset="0.7359" style="stop-color:#D52768"/>
			<stop  offset="0.8257" style="stop-color:#CE2160"/>
			<stop  offset="0.9921" style="stop-color:#CC1F5E"/>
		</linearGradient>
		<path class="st17" d="M143.7,90.09v6.77h-0.02c-0.02,0.22-0.09,0.44-0.22,0.64c-0.19,0.31-0.5,0.61-0.94,0.86l-25.05,14.46
			c-1.57,0.91-4.12,0.91-5.68,0L73.14,90.51c-0.45-0.27-0.77-0.57-0.96-0.9c-0.14-0.24-0.21-0.49-0.21-0.74
			c0-0.03,0.02-0.05,0.02-0.09h-0.02v-6.77c0,0.25,0.07,0.5,0.21,0.74c0.19,0.33,0.51,0.63,0.96,0.9l38.65,22.31
			c1.56,0.91,4.12,0.91,5.68,0l25.05-14.46c0.44-0.25,0.75-0.55,0.94-0.86c0.12-0.18,0.19-0.37,0.22-0.56H143.7z"/>
		<path class="st14" d="M142.52,98.36l-0.31,1.16l-4.08,2.36l-1.66,0.95l-7.87,4.55l-0.03,0.01l-0.41,0.24l-0.11,0.07l-10.58,6.1
			c-1.57,0.91-4.12,0.91-5.68,0L85.43,98.59l-0.23-0.14l-6.96-4.01l-1.93-1.11l-2.89-1.67l-0.29-1.14l38.65,22.31
			c1.56,0.91,4.12,0.91,5.68,0L142.52,98.36z"/>
		<path class="st13" d="M142.51,88.22l-6.1-3.52l-2-1.16l-30.54-17.63c-1.57-0.91-4.12-0.91-5.68,0L73.13,80.37
			c-0.78,0.46-1.17,1.05-1.17,1.65c0,0.25,0.07,0.5,0.21,0.74c0.19,0.33,0.51,0.63,0.96,0.9l38.65,22.31c1.57,0.91,4.12,0.91,5.68,0
			l25.05-14.46c0.44-0.25,0.75-0.55,0.94-0.86c0.12-0.18,0.19-0.37,0.22-0.56c0.02-0.07,0.02-0.15,0.02-0.22
			C143.7,89.27,143.3,88.68,142.51,88.22z M141.74,90.15l-24.41,14.09l-0.65,0.38c-0.52,0.29-1.27,0.47-2.06,0.47
			c-0.79,0-1.54-0.18-2.06-0.47l-13.08-7.56L73.91,82.31c-0.22-0.14-0.32-0.24-0.36-0.29c0.05-0.07,0.15-0.17,0.36-0.29l25.06-14.47
			c0.52-0.29,1.27-0.46,2.06-0.46c0.79,0,1.54,0.17,2.06,0.46l31.32,18.09l2,1.16l5.32,3.07c0.2,0.12,0.31,0.22,0.37,0.29
			C142.06,89.91,141.97,90.02,141.74,90.15z"/>
		<g>
			<path class="st11" d="M79.78,92.89c-0.53,0-0.97-0.42-1-0.95c-0.11-2.24-0.25-6.12,0.05-7.02c1.03-3.07,19.77-27.92,19.95-28.16
				c0.63-0.8,1.79-0.73,3.03,0.17c0.91,0.66,0.56,1.34,0.43,1.53c-0.09,0.14-0.6,0.79-1.54,0.21c-0.12-0.07-0.21-0.16-0.29-0.26
				c-0.09-0.05-0.19-0.1-0.27-0.14c-2.38,3.1-18.62,24.88-19.42,27.28c-0.13,0.52-0.08,3.67,0.05,6.29c0.03,0.55-0.4,1.02-0.95,1.05
				C79.81,92.89,79.79,92.89,79.78,92.89z"/>
		</g>
		<linearGradient id="SVGID_9_" gradientUnits="userSpaceOnUse" x1="112.2691" y1="62.6225" x2="115.4501" y2="54.837">
			<stop  offset="0" style="stop-color:#E01E68"/>
			<stop  offset="0.5943" style="stop-color:#EF3681"/>
			<stop  offset="1" style="stop-color:#F6428D"/>
		</linearGradient>
		<path class="st18" d="M108.27,52.68l-0.01,0.01c-0.42-0.26-1.05-0.23-1.77,0.18c-1.28,0.74-2.31,2.37-2.31,3.65
			c0,0.61,0.24,1.02,0.63,1.21l0,0l15.31,8.82l3.43-5.07L108.27,52.68z"/>
		<path class="st14" d="M124.11,62.67c0,1.28-1.03,2.91-2.31,3.65c-1.28,0.74-2.31,0.3-2.31-0.98c0-1.28,1.04-2.91,2.31-3.65
			C123.07,60.96,124.11,61.4,124.11,62.67z"/>
		<linearGradient id="SVGID_10_" gradientUnits="userSpaceOnUse" x1="107.6511" y1="65.4048" x2="110.8319" y2="57.6199">
			<stop  offset="0" style="stop-color:#E01E68"/>
			<stop  offset="0.5943" style="stop-color:#EF3681"/>
			<stop  offset="1" style="stop-color:#F6428D"/>
		</linearGradient>
		<path class="st19" d="M103.65,55.46l-0.01,0.01c-0.42-0.26-1.05-0.23-1.77,0.18c-1.28,0.74-2.31,2.37-2.31,3.65
			c0,0.61,0.24,1.02,0.63,1.21l0,0l15.31,8.82l3.43-5.07L103.65,55.46z"/>
		<path class="st14" d="M119.49,65.46c0,1.28-1.04,2.91-2.31,3.65c-1.28,0.74-2.31,0.3-2.31-0.98c0-1.28,1.04-2.91,2.31-3.65
			C118.45,63.74,119.49,64.18,119.49,65.46z"/>
		<g>
			<path class="st11" d="M106.95,108.27c-0.53,0-0.97-0.42-1-0.95c-0.11-2.24-0.25-6.12,0.05-7.02c0.47-1.4,3.29-9.19,6.02-16.72
				c2.46-6.79,5.24-14.48,5.39-14.98c0.09-0.32,0.11-0.4-0.4-0.72c-0.47-0.29-0.62-0.91-0.33-1.38c0.29-0.47,0.9-0.62,1.38-0.33
				c0.45,0.27,1.8,1.1,1.28,2.96c-0.13,0.46-2.15,6.04-5.44,15.12c-2.72,7.52-5.54,15.3-6,16.67c-0.13,0.52-0.08,3.67,0.05,6.29
				c0.03,0.55-0.4,1.02-0.95,1.05C106.98,108.27,106.96,108.27,106.95,108.27z"/>
		</g>
		<g>
			<path class="st11" d="M136.41,83.24v1.46l-2-1.16v-0.3c0-2.56-8.07-12.86-11.75-17.16c-0.59-0.7-0.94-0.96-1.09-1.05
				c-0.47-0.29-0.62-0.91-0.33-1.38c0.29-0.47,0.91-0.62,1.38-0.33c0.45,0.28,0.96,0.76,1.56,1.46
				C124.68,65.36,136.41,79.12,136.41,83.24z"/>
		</g>
	</g>
	<g>
		<path class="st20" d="M126.34,42.68c0,1.01-0.36,1.74-0.99,2.2c-0.05,0.03-0.1,0.07-0.15,0.09c-0.28,0.17-0.61,0.29-0.97,0.36
			c-0.54,0.11-1.16,0.1-1.84-0.02c-0.03,0.45,0.07,1.89,2.22,3.89c-0.21-0.09-3.59-1.61-5.99-5.38c-4.13-2.44-7.46-6.85-7.46-9.91
			c0-0.92,0.3-1.62,0.84-2.08h0l0.02-0.02c0.12-0.1,0.25-0.19,0.39-0.26c1.36-0.73,3.69-0.39,6.34,1.14
			C122.94,35.12,126.34,39.59,126.34,42.68z"/>
		<path class="st20" d="M149.7,62.72c0,1.29-0.45,2.24-1.23,2.83l-0.36,0.24l-0.01,0.01c-1.75,0.98-4.78,0.56-8.22-1.39
			c-3.25,1.38-7.9-2.03-7.9-2.03c2.22,0.52,2.79-0.43,2.92-1.18c0.03-0.21,0.03-0.41,0.03-0.55c-3.11-3.04-5.21-6.69-5.21-9.48
			c0-1.25,0.42-2.18,1.16-2.78l0.49-0.33c1.79-0.96,4.86-0.51,8.35,1.5C145.22,52.76,149.7,58.65,149.7,62.72z"/>
		<path class="st21" d="M150.33,64.3L150.33,64.3l-1.87,1.25c0.79-0.59,1.23-1.54,1.23-2.83c0-4.07-4.48-9.96-10-13.15
			c-3.49-2.01-6.56-2.47-8.35-1.5l1.72-1.16l0.01,0.01c1.73-1.17,4.93-0.79,8.6,1.33c5.52,3.19,10,9.08,10,13.15
			C151.68,62.74,151.18,63.71,150.33,64.3z"/>
		<path class="st21" d="M134.89,61.21c-0.13,0.75-0.7,1.7-2.92,1.18l1.98-1.32C134.31,61.15,134.62,61.19,134.89,61.21z"/>
		<path class="st21" d="M127.99,41.58c0,1.04-0.39,1.79-1.06,2.23v0.01l-1.59,1.06c0.63-0.45,0.99-1.19,0.99-2.2
			c0-3.09-3.4-7.56-7.6-9.98c-2.65-1.53-4.98-1.88-6.34-1.14l1.36-0.92c1.3-0.97,3.78-0.7,6.63,0.95
			C124.59,34.02,127.99,38.49,127.99,41.58z"/>
		<path class="st21" d="M126.25,48.1c-0.01-0.01-0.02-0.01-0.04-0.02l-1.6,1.13l-0.01-0.01c-2.15-2-2.25-3.44-2.22-3.89
			c0.68,0.12,1.31,0.13,1.84,0.02c0.25,0.68,0.8,1.63,2,2.74l0,0.01C126.23,48.08,126.24,48.09,126.25,48.1z"/>
	</g>
	<g>
		<path class="st2" d="M29.13,113.04c0,0-3.35-1.9-3.97-2.25c-2.05-1.16-3.15-2.59-3.15-4.14c-0.01-1.72,1.35-3.46,3.84-4.89
			c0.23-0.13,22.76-13.27,26.45-15.33c3.41-1.91,6.77-3.35,10.3-0.08c0.1,0.09,0.11,0.25,0.01,0.35c-0.09,0.1-0.25,0.11-0.35,0.01
			c-2.99-2.77-5.73-2.08-9.72,0.15c-3.68,2.06-26.21,15.2-26.44,15.33c-2.32,1.34-3.59,2.92-3.59,4.46c0.01,1.36,1.01,2.64,2.9,3.71
			c0.62,0.35,3.97,2.25,3.97,2.25L29.13,113.04z"/>
	</g>
	<g>
		<path class="st2" d="M97.18,152.55c-0.04,0-0.09-0.01-0.13-0.03l-4.54-2.64c-0.12-0.07-0.16-0.22-0.09-0.34
			c0.07-0.12,0.22-0.16,0.34-0.09l4.54,2.64c0.12,0.07,0.16,0.22,0.09,0.34C97.35,152.51,97.27,152.55,97.18,152.55z"/>
	</g>
	<g>
		<path class="st2" d="M74.91,139.59c-0.04,0-0.09-0.01-0.13-0.03l-4.54-2.64c-0.12-0.07-0.16-0.22-0.09-0.34
			c0.07-0.12,0.22-0.16,0.34-0.09l4.54,2.64c0.12,0.07,0.16,0.22,0.09,0.34C75.08,139.54,75,139.59,74.91,139.59z"/>
	</g>
	<g>
		<g>
			<path class="st2" d="M138.38,175.13c-1.54,0-2.94-0.74-4.46-1.55c-0.29-0.15-0.58-0.31-0.88-0.46
				c-2.21-1.14-12.88-7.23-17.37-9.79c-0.12-0.07-0.16-0.22-0.09-0.34c0.07-0.12,0.22-0.16,0.34-0.09c3.5,2,15.09,8.62,17.35,9.78
				c0.3,0.15,0.6,0.31,0.88,0.46c2.34,1.25,4.19,2.24,6.76,0.75c2.74-1.58,26.89-15.53,30.24-17.5c1.81-1.07,2.77-2.16,2.78-3.17
				c0-0.87-0.7-1.72-2.08-2.54c-3.33-1.97-16.37-9.29-16.5-9.36c-0.12-0.07-0.16-0.22-0.1-0.34c0.07-0.12,0.22-0.16,0.34-0.1
				c0.13,0.08,13.17,7.39,16.51,9.37c1.54,0.91,2.32,1.91,2.32,2.97c0,1.21-1.02,2.42-3.02,3.6c-3.35,1.97-27.5,15.92-30.24,17.5
				C140.15,174.9,139.24,175.13,138.38,175.13z"/>
		</g>
	</g>
	<g class="st22">
		<g>
			<path class="st2" d="M29.25,113.82c-0.17,0-0.34-0.04-0.5-0.13c-3.34-1.93-3.34-1.9-3.96-2.24c-2.91-1.64-3.53-3.51-3.54-4.79
				c-0.01-2,1.48-3.97,4.21-5.54c0.22-0.13,22.76-13.27,26.45-15.34c3.52-1.97,7.28-3.59,11.18,0.02c0.41,0.38,0.43,1.01,0.05,1.41
				c-0.38,0.41-1.01,0.43-1.41,0.05c-2.67-2.47-5.08-1.85-8.85,0.25c-3.68,2.06-26.2,15.19-26.43,15.32
				c-2.05,1.18-3.22,2.57-3.21,3.8c0.01,1.36,1.37,2.41,2.52,3.06c0.62,0.35,0.63,0.31,3.98,2.26c0.48,0.28,0.64,0.89,0.36,1.36
				C29.93,113.64,29.59,113.82,29.25,113.82z"/>
		</g>
	</g>
	<g class="st22">
		<g>
			<path class="st2" d="M97.18,153.3c-0.17,0-0.34-0.04-0.5-0.14l-4.54-2.64c-0.48-0.28-0.64-0.89-0.36-1.37
				c0.28-0.48,0.89-0.64,1.37-0.36l4.55,2.64c0.48,0.28,0.64,0.89,0.36,1.37C97.86,153.13,97.52,153.3,97.18,153.3z"/>
		</g>
	</g>
	<g class="st22">
		<g>
			<path class="st2" d="M74.91,140.34c-0.17,0-0.34-0.04-0.5-0.14l-4.55-2.64c-0.48-0.28-0.64-0.89-0.36-1.37
				c0.28-0.48,0.89-0.64,1.37-0.36l4.54,2.64c0.48,0.28,0.64,0.89,0.36,1.37C75.59,140.16,75.25,140.34,74.91,140.34z"/>
		</g>
	</g>
	<g>
		<path class="st2" d="M52.41,126.56c-0.04,0-0.09-0.01-0.13-0.03l-4.55-2.64c-0.12-0.07-0.16-0.23-0.09-0.34
			c0.07-0.12,0.22-0.16,0.34-0.09l4.54,2.64c0.12,0.07,0.16,0.22,0.09,0.34C52.58,126.52,52.5,126.56,52.41,126.56z"/>
	</g>
	<g class="st22">
		<g>
			<path class="st2" d="M52.41,127.31c-0.17,0-0.34-0.04-0.5-0.14l-4.55-2.64c-0.48-0.28-0.64-0.89-0.36-1.37
				c0.28-0.48,0.89-0.64,1.37-0.36l4.54,2.64c0.48,0.28,0.64,0.89,0.36,1.37C53.09,127.13,52.76,127.31,52.41,127.31z"/>
		</g>
	</g>
	<path class="st2" d="M156.55,141.1c0,0.6-0.48,1.08-1.08,1.08c-0.59,0-1.08-0.48-1.08-1.08c0-0.6,0.48-1.08,1.08-1.08
		C156.07,140.02,156.55,140.5,156.55,141.1z"/>
	<g class="st22">
		<g>
			<path class="st2" d="M172.49,149.6c-2.71-1.61-11.79-6.72-15.21-8.64c-0.07-0.94-0.85-1.69-1.81-1.69
				c-1.01,0-1.82,0.82-1.82,1.82c0,1.01,0.81,1.82,1.82,1.82c0.3,0,0.58-0.08,0.83-0.21c3.42,1.92,12.47,7.02,15.17,8.61
				c1.1,0.65,1.71,1.32,1.71,1.89c0,0.7-0.88,1.62-2.41,2.52c-2.07,1.22-12.3,7.14-29.59,17.12l-0.65,0.37
				c-2.21,1.28-3.73,0.47-6.03-0.76c-0.29-0.16-0.59-0.32-0.89-0.47c-2.17-1.12-12.84-7.2-17.33-9.77
				c-0.48-0.28-1.09-0.11-1.36,0.37c-0.27,0.48-0.11,1.09,0.37,1.36c4.5,2.57,15.2,8.67,17.4,9.81c0.3,0.15,0.59,0.31,0.87,0.46
				c1.52,0.81,3.07,1.64,4.83,1.64c0.98,0,2.02-0.25,3.15-0.91l0.65-0.37c17.29-9.98,27.53-15.91,29.6-17.13
				c2.25-1.32,3.39-2.75,3.39-4.25C175.18,151.88,174.28,150.66,172.49,149.6z"/>
		</g>
	</g>
	<g>
		<g>
			<path class="st23" d="M42.41,125.25c-2.15,1.24-5.63,1.24-7.78,0l-7.64-4.41c-2.15-1.24-2.15-3.25,0-4.49l7.64-4.41
				c2.15-1.24,5.63-1.24,7.78,0l7.64,4.41c2.15,1.24,2.15,3.25,0,4.49L42.41,125.25z"/>
		</g>
		<g>
			<path class="st24" d="M64.53,138.72c-2.15,1.24-5.63,1.24-7.78,0l-7.64-4.41c-2.15-1.24-2.15-3.25,0-4.5l7.64-4.41
				c2.15-1.24,5.63-1.24,7.78,0l7.64,4.41c2.15,1.24,2.15,3.25,0,4.5L64.53,138.72z"/>
		</g>
		<g>
			<path class="st25" d="M86.92,151.54c-2.15,1.24-5.63,1.24-7.78,0l-7.63-4.41c-2.15-1.24-2.15-3.25,0-4.49l7.63-4.41
				c2.15-1.24,5.63-1.24,7.78,0l7.63,4.41c2.15,1.24,2.15,3.25,0,4.49L86.92,151.54z"/>
		</g>
		<g>
			<path class="st25" d="M110.17,164.53c-2.15,1.24-5.63,1.24-7.78,0l-7.64-4.41c-2.15-1.24-2.15-3.25,0-4.5l7.64-4.41
				c2.15-1.24,5.63-1.24,7.78,0l7.63,4.41c2.15,1.24,2.15,3.25,0,4.5L110.17,164.53z"/>
		</g>
		<g>
			<path class="st2" d="M48.3,119.16c0-0.63-0.89-1.14-1.98-1.14l-9.93,1.01l1.05-3.71c0-0.63-0.89-1.14-1.98-1.14
				s-1.98,0.51-1.98,1.14l-1.05,4.86c0,0.32,0.22,0.6,0.58,0.81c0.36,0.21,0.85,0.33,1.4,0.33l11.92-1.01
				C47.41,120.3,48.3,119.79,48.3,119.16z"/>
		</g>
		<path class="st2" d="M88.05,144.55c0.25-0.14,0.57-0.3,0.95-0.48c1.87-0.89,1.71-2.17,0.87-2.65c-1.07-0.62-2.15,0.01-3.8,0.96
			l-0.24,0.14c-0.4,0.19-2.44,0.16-3.42,0.05c-0.01-0.29-0.2-0.58-0.59-0.8l-1.14-0.66c-0.79-0.45-2.08-0.45-2.87,0l-4.59,2.65
			c-0.79,0.46-0.79,1.2,0,1.65l1.14,0.66c0.38,0.22,0.87,0.32,1.36,0.33c0.63,0.9,2.46,2.05,3.61,2.71c0.87,0.5,2.91,1.68,4.62,0.84
			c0.16-0.08,0.29-0.16,0.39-0.23c0.68,0.08,1.42-0.04,1.94-0.34c0.22-0.13,0.4-0.26,0.52-0.39c0.52-0.01,1.03-0.14,1.43-0.37
			c0.48-0.27,0.67-0.65,0.58-1.01c0.2-0.07,0.34-0.15,0.42-0.2c0.68-0.39,0.73-0.97,0.44-1.3c-0.17-0.22-0.35-0.32-0.6-0.47
			c-0.31-0.19-0.93-0.57-1.17-0.7c-0.18-0.1-0.21-0.16-0.21-0.16C87.71,144.81,87.74,144.74,88.05,144.55z M74.4,144.45l4.59-2.65
			c0.15-0.08,0.38-0.08,0.53,0l1.14,0.66c0.14,0.08,0.14,0.22,0,0.3l-4.59,2.65c-0.15,0.08-0.38,0.08-0.53,0l-1.14-0.66
			C74.25,144.67,74.25,144.54,74.4,144.45z M86.75,145.64c0.23,0.13,0.83,0.5,1.14,0.68c0.14,0.08,0.2,0.1,0.29,0.21
			c0.08,0.17-0.2,0.32-0.33,0.31c-0.36-0.04-0.72,0.05-0.9,0.24c-0.17,0.18-0.12,0.42,0.14,0.57c0.15,0.09,0.15,0.23-0.01,0.32
			c-0.22,0.13-0.44,0.09-0.53,0.07c-0.27-0.07-0.59-0.06-0.82,0.04c-0.04,0.02-0.07,0.03-0.1,0.05c-0.17,0.1-0.26,0.23-0.23,0.38
			c-0.01,0.02-0.07,0.11-0.28,0.22c-0.16,0.09-0.46,0.11-0.61,0.04c-0.2-0.09-0.47-0.12-0.72-0.08c-0.25,0.04-0.46,0.14-0.55,0.28
			c-0.11,0.15-0.19,0.2-0.36,0.29c-0.55,0.27-1.83-0.47-2.38-0.79c-1.88-1.08-2.94-1.94-3.25-2.39l4.53-2.61
			c1.46,0.22,4.3,0.27,5.21-0.25l0.25-0.15c0.59-0.34,1.2-0.69,1.55-0.84c0.08,0.23-0.01,0.72-0.84,1.11
			c-0.42,0.2-0.79,0.38-1.07,0.54C85.83,144.49,85.78,145.09,86.75,145.64z"/>
		<g>
			<path class="st2" d="M106.89,163.56c-0.15,0.09-0.35,0.14-0.56,0.14c-0.23,0-0.45-0.05-0.61-0.14l-9.29-5.36
				c-0.16-0.09-0.25-0.22-0.24-0.35c0.01-0.13,0.11-0.25,0.28-0.34l7.46-3.78c0.33-0.16,0.82-0.16,1.13,0.02l8.36,4.83
				c0.31,0.18,0.32,0.46,0.04,0.65l-6.54,4.31C106.91,163.54,106.9,163.55,106.89,163.56z M98.22,157.88l8.04,4.64l5.45-3.59
				l-7.27-4.2L98.22,157.88z"/>
		</g>
		<g>
			<path class="st2" d="M112.93,156.99l-1.71,0.98c-0.32,0.19-0.84,0.19-1.17,0c-0.32-0.19-0.32-0.49,0-0.67l1.71-0.99
				c0.7-0.4,0.7-1.06,0-1.46l-0.14-0.08c-0.7-0.4-1.84-0.4-2.54,0l-1.71,0.99c-0.32,0.19-0.85,0.19-1.17,0
				c-0.32-0.19-0.32-0.49,0-0.67l1.71-0.99c1.34-0.78,3.53-0.78,4.87,0l0.14,0.08C114.28,154.95,114.28,156.22,112.93,156.99z"/>
		</g>
		<g>
			<path class="st2" d="M106.58,161.49c-0.15,0.09-0.35,0.14-0.56,0.14c-0.23,0-0.45-0.05-0.61-0.14l-5.41-3.13
				c-0.16-0.09-0.25-0.22-0.24-0.35c0.01-0.13,0.12-0.26,0.28-0.34l3.96-2.02c0.33-0.17,0.82-0.16,1.13,0.02l4.95,2.86
				c0.31,0.18,0.32,0.47,0.04,0.65l-3.5,2.29C106.61,161.48,106.6,161.49,106.58,161.49z M101.79,158.06l4.17,2.41l2.41-1.57
				l-3.85-2.22L101.79,158.06z"/>
		</g>
		<g>
			<path class="st2" d="M68.11,134.78L68.11,134.78c-0.15,0.09-0.32,0.17-0.49,0.25c-1.88,0.88-4.64,1.12-7.2,0.64
				c-2.04-0.38-4.37-0.26-4.39-0.26c-0.32,0.02-0.63-0.05-0.87-0.17c-0.23-0.13-0.35-0.31-0.34-0.49c0-0.01,0.12-1.46-0.45-2.58
				c-0.78-1.53-0.36-3.08,1.12-4.14c1.88-1.35,5.07-1.61,7.16-0.67c1.27,0.57,1.97,1.43,1.99,2.39c1.66,0.01,3.14,0.41,4.14,1.15
				C70.29,132.02,70,133.69,68.11,134.78z M57.03,134.13c1.04,0,2.6,0.06,4.07,0.34c1.87,0.35,3.84,0.19,5.14-0.42
				c1.38-0.65,1.71-1.69,0.8-2.36c-1.11-0.82-2.88-0.67-3.4-0.6c-0.37,0.05-0.75-0.02-1.02-0.17c-0.27-0.15-0.38-0.38-0.3-0.59
				c0.11-0.3,0.38-1.32-1.04-1.96c-1.16-0.52-2.97-0.34-4.09,0.46c-1.03,0.74-1.3,1.85-0.72,2.98
				C56.89,132.62,57.01,133.53,57.03,134.13z"/>
		</g>
	</g>
	<g>
		<path class="st26" d="M45.98,61.97c0.29,0.27,0.7,0.39,1.17,0.35c0.38-0.03,0.81-0.17,1.26-0.43c0.45-0.26,0.88-0.62,1.26-1.02
			c0.48-0.51,0.88-1.1,1.17-1.7c-0.03-0.64-0.35-0.82-0.83-0.75c-0.41,0.64-0.97,1.22-1.6,1.58c-0.63,0.36-1.19,0.43-1.6,0.26
			C46.33,60.74,46.01,61.29,45.98,61.97z"/>
		<path class="st21" d="M20.17,72.04v6.48c0,0.94,0.76,1.26,1.7,0.72l29.55-17.06c0.01,0,0.01,0.01,0.01,0.02
			c1.38,0.93,3.14-0.55,3.14-0.55c-0.95-0.02-1.12-0.6-1.12-1.01c0-0.24,0.06-0.43,0.06-0.43c0.17-0.37,0.28-0.74,0.28-1.09v-6.48
			c0-0.93-0.76-1.26-1.7-0.72L21.87,69.36C20.93,69.9,20.17,71.1,20.17,72.04z M44.86,60.97c0-1.95,1.58-4.44,3.53-5.56
			c1.95-1.13,3.53-0.46,3.53,1.49c0,1.95-1.58,4.45-3.53,5.57C46.44,63.6,44.86,62.93,44.86,60.97z"/>
		<path class="st26" d="M46.84,58.62c0,0.62,0.36,0.95,0.89,0.9c0.2-0.02,0.44-0.09,0.68-0.23c0.24-0.14,0.48-0.33,0.68-0.55
			c0.53-0.56,0.89-1.31,0.89-1.93c0-0.87-0.7-1.16-1.57-0.66C47.54,56.64,46.84,57.75,46.84,58.62z"/>
		<polygon class="st2" points="31.82,66.29 23.31,71.2 23.31,69.88 31.82,64.97 		"/>
		<polygon class="st25" points="28.46,71.78 23.31,74.75 23.31,73.43 28.46,70.46 		"/>
		<polygon class="st25" points="43.27,65.51 23.31,77.04 23.31,75.71 43.27,64.19 		"/>
	</g>
	<g>
		<path class="st26" d="M28.33,86.29c-0.29,0.6-0.69,1.19-1.17,1.7c-0.38,0.4-0.81,0.76-1.26,1.02c-0.45,0.26-0.88,0.4-1.26,0.43
			c-0.47,0.04-0.88-0.08-1.16-0.36c0.03-0.67,0.35-1.22,0.83-1.71c0.41,0.17,0.96,0.1,1.59-0.26c0.63-0.36,1.18-0.94,1.59-1.57
			C27.98,85.47,28.3,85.65,28.33,86.29z"/>
		<path class="st21" d="M52.36,65.91L22.25,83.29c-0.94,0.54-1.69,1.74-1.69,2.67v6.46c0,0.34,0.1,0.6,0.28,0.77
			c0,0,0.06,0.12,0.06,0.36c0,0.41-0.17,1.18-1.12,2.3c0,0,1.75-0.55,3.13-3.07c0-0.01,0-0.02,0-0.03l29.45-17
			c0.94-0.54,1.69-1.73,1.69-2.67v-6.46C54.05,65.7,53.3,65.37,52.36,65.91z M25.94,89.56c-1.95,1.12-3.52,0.46-3.52-1.49
			c0-1.94,1.57-4.42,3.52-5.55c1.94-1.12,3.52-0.45,3.52,1.49C29.45,85.96,27.88,88.44,25.94,89.56z"/>
		<path class="st26" d="M27.47,83.95c0,0.62-0.36,1.37-0.89,1.92c-0.2,0.22-0.43,0.41-0.68,0.55c-0.24,0.14-0.47,0.22-0.68,0.23
			c-0.53,0.05-0.89-0.28-0.89-0.9c0-0.86,0.7-1.97,1.56-2.47C26.77,82.79,27.47,83.08,27.47,83.95z"/>
		<polygon class="st2" points="42.35,74.31 31.09,80.81 31.09,79.49 42.35,72.99 		"/>
		<polygon class="st25" points="50.98,72.86 31.09,84.34 31.09,83.03 50.98,71.54 		"/>
		<polygon class="st25" points="46.14,77.94 31.09,86.62 31.09,85.31 46.14,76.62 		"/>
	</g>
	<g>
		<g class="st27">
			<polygon class="st20" points="172.13,76.51 172.13,79.71 153.4,68.9 153.41,65.7 			"/>
			<path class="st20" d="M156.5,74.53l-3.68-2.13c-0.69-0.4-1.26-0.08-1.27,0.72l-0.01,4.23c0,0.81,0.56,1.79,1.26,2.19l3.68,2.13
				c0.71,0.41,1.28,0.08,1.28-0.73l0.01-4.23C157.77,75.92,157.21,74.94,156.5,74.53z"/>
			<path class="st20" d="M164.6,79.21l-3.68-2.13c-0.69-0.4-1.26-0.08-1.26,0.72l-0.01,4.23c0,0.81,0.56,1.79,1.26,2.19l3.68,2.13
				c0.7,0.41,1.26,0.08,1.26-0.73l0.01-4.23C165.86,80.59,165.31,79.62,164.6,79.21z"/>
			<path class="st20" d="M173.96,86.06l-0.01,4.23c0,0.41-0.15,0.7-0.39,0.84l-0.1,0.04c-0.22,0.07-0.48,0.03-0.77-0.14L169,88.9
				c-0.69-0.4-1.25-1.38-1.25-2.2l0.01-4.23c0-0.41,0.15-0.69,0.39-0.82l0.16-0.06c0.21-0.05,0.45,0.01,0.71,0.16l3.68,2.13
				C173.41,84.29,173.96,85.27,173.96,86.06z"/>
			<path class="st20" d="M156.48,83.66l-3.68-2.13c-0.69-0.4-1.26-0.08-1.27,0.72l-0.01,4.24c0,0.8,0.56,1.78,1.26,2.18l3.68,2.12
				c0.71,0.41,1.27,0.08,1.28-0.71l0.01-4.24C157.75,85.04,157.18,84.06,156.48,83.66z"/>
			<path class="st20" d="M164.58,88.33l-3.68-2.13c-0.69-0.4-1.26-0.08-1.26,0.72l-0.01,4.24c0,0.8,0.56,1.78,1.26,2.18l3.68,2.13
				c0.7,0.41,1.26,0.08,1.26-0.72l0.01-4.24C165.84,89.71,165.28,88.74,164.58,88.33z"/>
			<path class="st20" d="M172.68,93.01L169,90.89c-0.69-0.4-1.26-0.08-1.27,0.72l-0.01,4.24c0,0.8,0.56,1.78,1.26,2.18l3.68,2.13
				c0.71,0.41,1.26,0.07,1.27-0.72l0.01-4.24C173.94,94.39,173.38,93.42,172.68,93.01z"/>
			<path class="st20" d="M156.45,92.78l-3.68-2.13c-0.69-0.4-1.26-0.08-1.26,0.73l-0.01,4.23c0,0.8,0.56,1.78,1.26,2.18l3.68,2.13
				c0.7,0.41,1.27,0.08,1.28-0.71l0.01-4.23C157.72,94.17,157.15,93.19,156.45,92.78z"/>
			<path class="st20" d="M164.55,97.46l-3.68-2.13c-0.69-0.4-1.26-0.08-1.27,0.73l-0.01,4.23c0,0.8,0.56,1.78,1.26,2.18l3.68,2.13
				c0.71,0.41,1.26,0.08,1.27-0.72l0.01-4.23C165.81,98.84,165.25,97.87,164.55,97.46z"/>
			<path class="st20" d="M172.65,102.13l-3.68-2.12c-0.69-0.4-1.26-0.07-1.26,0.73l-0.01,4.23c0,0.8,0.56,1.78,1.26,2.18l3.68,2.13
				c0.7,0.41,1.26,0.07,1.26-0.72l0.01-4.23C173.91,103.52,173.36,102.54,172.65,102.13z"/>
		</g>
		<polygon class="st21" points="173.63,75.96 173.63,79.16 172.13,79.71 172.13,76.51 153.41,65.7 154.91,65.15 		"/>
		<path class="st21" d="M175.46,85.51l-0.01,4.23c0,0.46-0.2,0.76-0.48,0.86l-0.02,0.01c-0.01,0.01-0.03,0.02-0.06,0.02l-1.32,0.49
			c0.24-0.14,0.39-0.42,0.39-0.84l0.01-4.23c0-0.79-0.55-1.77-1.26-2.17l-3.68-2.13c-0.26-0.15-0.51-0.21-0.71-0.16l1.45-0.53
			c0.22-0.07,0.47-0.04,0.76,0.14l3.68,2.13C174.9,83.74,175.46,84.72,175.46,85.51z"/>
		<path class="st21" d="M167.35,80.83l-0.01,4.23c0,0.46-0.2,0.76-0.48,0.86l-0.02,0.01c-0.01,0.01-0.04,0.02-0.06,0.02l-1.32,0.49
			c0.24-0.14,0.39-0.42,0.39-0.84l0.01-4.23c0-0.79-0.55-1.77-1.26-2.17l-3.68-2.13c-0.26-0.15-0.51-0.21-0.71-0.16l1.45-0.53
			c0.22-0.07,0.47-0.04,0.76,0.14l3.68,2.13C166.8,79.06,167.35,80.04,167.35,80.83z"/>
		<path class="st21" d="M167.33,89.96l-0.01,4.23c0,0.46-0.2,0.76-0.48,0.86l-0.02,0.01c-0.01,0.01-0.03,0.02-0.06,0.02l-1.32,0.49
			c0.24-0.14,0.39-0.43,0.39-0.84l0.01-4.23c0-0.79-0.55-1.77-1.26-2.17l-3.68-2.13c-0.26-0.15-0.51-0.21-0.71-0.16l1.45-0.53
			c0.22-0.07,0.47-0.03,0.76,0.14l3.68,2.13C166.78,88.19,167.33,89.17,167.33,89.96z"/>
		<path class="st21" d="M167.3,99.08l-0.01,4.23c0,0.46-0.2,0.76-0.48,0.86l-0.02,0.01c-0.01,0.01-0.03,0.02-0.06,0.02l-1.32,0.49
			c0.24-0.14,0.39-0.43,0.39-0.84l0.01-4.23c0-0.79-0.55-1.77-1.26-2.17l-3.68-2.13c-0.26-0.15-0.51-0.21-0.71-0.16l1.45-0.53
			c0.22-0.07,0.47-0.04,0.76,0.14l3.68,2.13C166.75,97.31,167.3,98.29,167.3,99.08z"/>
		<path class="st21" d="M159.21,94.41l-0.01,4.23c0,0.46-0.2,0.76-0.48,0.86l-0.02,0.01c-0.01,0.01-0.03,0.02-0.06,0.02l-1.32,0.49
			c0.24-0.14,0.39-0.42,0.39-0.84l0.01-4.23c0-0.79-0.55-1.77-1.26-2.17l-3.68-2.13c-0.26-0.15-0.51-0.21-0.71-0.16l1.45-0.53
			c0.22-0.07,0.47-0.04,0.76,0.14l3.68,2.13C158.66,92.64,159.21,93.61,159.21,94.41z"/>
		<path class="st21" d="M159.24,85.28l-0.01,4.23c0,0.46-0.2,0.76-0.48,0.86l-0.02,0.01c-0.01,0.01-0.04,0.02-0.06,0.02l-1.32,0.49
			c0.24-0.14,0.39-0.43,0.39-0.84l0.01-4.23c0-0.79-0.55-1.77-1.26-2.17l-3.68-2.13c-0.26-0.15-0.5-0.21-0.71-0.16l1.45-0.53
			c0.22-0.07,0.47-0.03,0.76,0.14l3.68,2.13C158.69,83.51,159.24,84.49,159.24,85.28z"/>
		<path class="st21" d="M159.26,76.16l-0.01,4.23c0,0.46-0.2,0.76-0.48,0.86l-0.02,0.01c-0.01,0.01-0.03,0.02-0.06,0.02l-1.32,0.49
			c0.24-0.14,0.39-0.42,0.39-0.84l0.01-4.23c0-0.79-0.55-1.77-1.26-2.17l-3.68-2.13c-0.26-0.15-0.5-0.21-0.71-0.16l1.45-0.53
			c0.22-0.07,0.47-0.03,0.76,0.14l3.68,2.13C158.71,74.39,159.26,75.36,159.26,76.16z"/>
		<path class="st21" d="M175.43,94.63l-0.01,4.23c0,0.46-0.2,0.76-0.48,0.86l-0.02,0.01c-0.01,0.01-0.04,0.02-0.06,0.02l-1.32,0.49
			c0.24-0.14,0.39-0.43,0.39-0.84l0.01-4.23c0-0.79-0.55-1.77-1.26-2.17l-3.68-2.13c-0.26-0.15-0.51-0.21-0.71-0.16l1.45-0.53
			c0.22-0.07,0.47-0.03,0.76,0.14l3.68,2.13C174.88,92.86,175.43,93.84,175.43,94.63z"/>
		<path class="st21" d="M175.4,103.76l-0.01,4.23c0,0.46-0.2,0.76-0.48,0.86l-0.02,0.01c-0.01,0.01-0.04,0.02-0.06,0.02l-1.32,0.5
			c0.24-0.14,0.39-0.43,0.39-0.84l0.01-4.23c0-0.79-0.55-1.77-1.26-2.17l-3.68-2.12c-0.26-0.15-0.51-0.21-0.71-0.16l1.45-0.53
			c0.22-0.07,0.47-0.04,0.76,0.14l3.68,2.13C174.85,101.99,175.4,102.97,175.4,103.76z"/>
	</g>
	<g>
		<path class="st28" d="M100,25.36l-0.86-0.54l-0.01,0c-0.38-0.2-0.92-0.16-1.52,0.19L59.65,46.93c-1.13,0.65-2.05,2.1-2.05,3.24
			v20.52c0,0.52,0.2,0.87,0.52,1.05l0,0.01l0.5,0.28l-0.07-0.16c0.32,0.02,0.69-0.08,1.1-0.31L97.6,49.63
			c1.13-0.65,2.05-2.1,2.05-3.24V25.88c0-0.2-0.04-0.37-0.09-0.52H100z"/>
		
			<linearGradient id="SVGID_11_" gradientUnits="userSpaceOnUse" x1="69.1544" y1="90.9181" x2="89.5799" y2="55.5402" gradientTransform="matrix(1 -0.5774 0 1 0 21.3435)">
			<stop  offset="0" style="stop-color:#418EC6"/>
			<stop  offset="1" style="stop-color:#9162D7"/>
		</linearGradient>
		<path class="st29" d="M100.4,46.86c0,1.13-0.92,2.58-2.05,3.24L60.39,72.01c-1.13,0.65-2.05,0.27-2.05-0.87V50.63
			c0-1.13,0.92-2.58,2.05-3.24l37.96-21.92c1.13-0.65,2.05-0.27,2.05,0.87V46.86z"/>
		<path class="st30" d="M94.83,47.55c0,1.58-1.28,3.6-2.86,4.51c-1.58,0.91-2.86,0.37-2.86-1.21c0-1.58,1.28-3.6,2.86-4.51
			C93.54,45.43,94.83,45.97,94.83,47.55z"/>
		<path class="st24" d="M98.36,45.5c0,1.58-1.28,3.6-2.86,4.51c-1.58,0.91-2.86,0.37-2.86-1.21c0-1.58,1.28-3.6,2.86-4.51
			C97.08,43.38,98.36,43.93,98.36,45.5z"/>
		<g class="st31">
			
				<linearGradient id="SVGID_12_" gradientUnits="userSpaceOnUse" x1="60.1192" y1="70.6987" x2="67.0007" y2="65.592" gradientTransform="matrix(1 -0.5774 0 1 0 21.3435)">
				<stop  offset="0" style="stop-color:#6D6E71"/>
				<stop  offset="1" style="stop-color:#BCBEC0"/>
			</linearGradient>
			<path class="st32" d="M64.34,51.95c0.51-0.3,0.97-0.39,1.31-0.31l0.06-0.04v-1.28l-2.76,1.59v1.28l0.07-0.04
				C63.37,52.68,63.83,52.25,64.34,51.95z"/>
			
				<linearGradient id="SVGID_13_" gradientUnits="userSpaceOnUse" x1="59.1913" y1="69.5076" x2="66.0172" y2="64.4422" gradientTransform="matrix(1 -0.5774 0 1 0 21.3435)">
				<stop  offset="0" style="stop-color:#6D6E71"/>
				<stop  offset="1" style="stop-color:#BCBEC0"/>
			</linearGradient>
			<path class="st33" d="M60.7,53.61v0.89l1.96-1.13v-1.28l-1.6,0.92C60.87,53.13,60.7,53.39,60.7,53.61z"/>
			
				<linearGradient id="SVGID_14_" gradientUnits="userSpaceOnUse" x1="60.0165" y1="70.481" x2="66.8193" y2="65.4328" gradientTransform="matrix(1 -0.5774 0 1 0 21.3435)">
				<stop  offset="0" style="stop-color:#6D6E71"/>
				<stop  offset="1" style="stop-color:#BCBEC0"/>
			</linearGradient>
			<path class="st34" d="M60.7,56.28l1.93-1.11c-0.11-0.13-0.17-0.32-0.17-0.55c0-0.25,0.07-0.53,0.2-0.82v-0.11l-1.96,1.13V56.28z"
				/>
			
				<linearGradient id="SVGID_15_" gradientUnits="userSpaceOnUse" x1="60.9256" y1="71.5852" x2="67.7421" y2="66.5268" gradientTransform="matrix(1 -0.5774 0 1 0 21.3435)">
				<stop  offset="0" style="stop-color:#6D6E71"/>
				<stop  offset="1" style="stop-color:#BCBEC0"/>
			</linearGradient>
			<path class="st35" d="M60.7,57.65c0,0.22,0.16,0.29,0.36,0.18l1.6-0.92v-1.44L60.7,56.6V57.65z"/>
			
				<linearGradient id="SVGID_16_" gradientUnits="userSpaceOnUse" x1="61.9413" y1="72.8529" x2="68.8147" y2="67.7523" gradientTransform="matrix(1 -0.5774 0 1 0 21.3435)">
				<stop  offset="0" style="stop-color:#6D6E71"/>
				<stop  offset="1" style="stop-color:#BCBEC0"/>
			</linearGradient>
			<path class="st36" d="M62.96,55.39v1.34l2.76-1.59v-1.34c-0.34,0.51-0.83,0.99-1.38,1.3C63.79,55.43,63.3,55.51,62.96,55.39z"/>
			
				<linearGradient id="SVGID_17_" gradientUnits="userSpaceOnUse" x1="61.1503" y1="71.9045" x2="67.9883" y2="66.8302" gradientTransform="matrix(1 -0.5774 0 1 0 21.3435)">
				<stop  offset="0" style="stop-color:#6D6E71"/>
				<stop  offset="1" style="stop-color:#BCBEC0"/>
			</linearGradient>
			<path class="st37" d="M67.61,49.23l-1.6,0.92v1.28l1.96-1.13v-0.89C67.97,49.19,67.81,49.12,67.61,49.23z"/>
			
				<linearGradient id="SVGID_18_" gradientUnits="userSpaceOnUse" x1="62.0469" y1="72.9267" x2="68.847" y2="67.8805" gradientTransform="matrix(1 -0.5774 0 1 0 21.3435)">
				<stop  offset="0" style="stop-color:#6D6E71"/>
				<stop  offset="1" style="stop-color:#BCBEC0"/>
			</linearGradient>
			<path class="st38" d="M66.02,51.85c0.13,0.14,0.2,0.34,0.2,0.59c0,0.23-0.06,0.49-0.17,0.74l1.92-1.11v-1.46l-1.96,1.13V51.85z"
				/>
			
				<linearGradient id="SVGID_19_" gradientUnits="userSpaceOnUse" x1="62.9053" y1="73.9667" x2="69.7117" y2="68.9157" gradientTransform="matrix(1 -0.5774 0 1 0 21.3435)">
				<stop  offset="0" style="stop-color:#6D6E71"/>
				<stop  offset="1" style="stop-color:#BCBEC0"/>
			</linearGradient>
			<path class="st39" d="M66.02,54.97l1.6-0.92c0.2-0.11,0.36-0.38,0.36-0.59V52.4l-1.96,1.13V54.97z"/>
			
				<linearGradient id="SVGID_20_" gradientUnits="userSpaceOnUse" x1="61.0526" y1="71.7742" x2="67.9011" y2="66.692" gradientTransform="matrix(1 -0.5774 0 1 0 21.3435)">
				<stop  offset="0" style="stop-color:#6D6E71"/>
				<stop  offset="1" style="stop-color:#BCBEC0"/>
			</linearGradient>
			<path class="st40" d="M65.54,52.03c-0.12-0.06-0.27-0.08-0.44-0.06c-0.22,0.02-0.48,0.11-0.76,0.27
				c-0.27,0.16-0.53,0.37-0.76,0.61c-0.17,0.18-0.32,0.38-0.45,0.58c-0.07,0.12-0.13,0.23-0.18,0.34c-0.1,0.23-0.16,0.46-0.16,0.67
				c0,0.21,0.06,0.37,0.16,0.48c0.01,0.02,0.03,0.03,0.05,0.05c0.08,0.08,0.18,0.12,0.31,0.14c0.27,0.05,0.63-0.04,1.03-0.26
				c0.39-0.23,0.75-0.56,1.02-0.92c0.12-0.16,0.23-0.33,0.31-0.5l0.05-0.03v-0.07c0.1-0.23,0.16-0.46,0.16-0.67
				c0-0.2-0.06-0.37-0.16-0.48C65.67,52.11,65.61,52.06,65.54,52.03z"/>
			
				<linearGradient id="SVGID_21_" gradientUnits="userSpaceOnUse" x1="62.1225" y1="72.9046" x2="68.8215" y2="67.9334" gradientTransform="matrix(1 -0.5774 0 1 0 21.3435)">
				<stop  offset="0" style="stop-color:#6D6E71"/>
				<stop  offset="1" style="stop-color:#BCBEC0"/>
			</linearGradient>
			<path class="st41" d="M66.02,53.27c0.01-0.03,0.03-0.05,0.04-0.08l-0.04,0.02V53.27z"/>
		</g>
		<g class="st42">
			<path class="st43" d="M88.63,33.26c0.19-0.15,0.48-0.35,0.78-0.52c0.43-0.25,0.7-0.33,0.91-0.28c0.17,0.03,0.27,0.17,0.27,0.43
				c0,0.32-0.21,0.72-0.56,1.05v0.01c0.31-0.1,0.68-0.05,0.68,0.44c0,0.29-0.11,0.57-0.28,0.82c-0.23,0.34-0.6,0.66-1.14,0.97
				c-0.29,0.17-0.52,0.28-0.66,0.34V33.26z M89.06,34.37l0.39-0.22c0.45-0.26,0.72-0.65,0.72-0.97c0-0.39-0.29-0.37-0.73-0.12
				c-0.2,0.11-0.31,0.19-0.38,0.25V34.37z M89.06,35.96c0.08-0.03,0.21-0.1,0.36-0.19c0.44-0.25,0.85-0.65,0.85-1.13
				c0-0.45-0.39-0.41-0.85-0.14l-0.35,0.2V35.96z"/>
			<path class="st43" d="M92.6,34.24l-0.04-0.28l-0.01,0.01c-0.13,0.26-0.39,0.58-0.73,0.77c-0.48,0.28-0.73,0.08-0.73-0.26
				c0-0.57,0.51-1.18,1.43-1.71v-0.05c0-0.2-0.05-0.52-0.54-0.24c-0.22,0.13-0.45,0.33-0.62,0.53l-0.1-0.23
				c0.2-0.24,0.48-0.49,0.78-0.66c0.73-0.42,0.9-0.03,0.9,0.45v0.89c0,0.21,0.01,0.4,0.04,0.55L92.6,34.24z M92.53,33.07
				c-0.47,0.26-1.01,0.65-1.01,1.12c0,0.28,0.19,0.3,0.41,0.18c0.31-0.18,0.5-0.49,0.57-0.73c0.01-0.05,0.02-0.11,0.02-0.15V33.07z"
				/>
			<path class="st43" d="M93.65,31.9c0-0.25,0-0.44-0.02-0.63l0.38-0.22l0.03,0.38l0.01-0.01c0.12-0.29,0.39-0.67,0.79-0.9
				c0.33-0.19,0.84-0.29,0.84,0.53v1.42l-0.43,0.25v-1.37c0-0.38-0.14-0.62-0.55-0.38c-0.29,0.16-0.51,0.49-0.58,0.78
				c-0.02,0.07-0.03,0.14-0.03,0.22v1.43l-0.43,0.25V31.9z"/>
			<path class="st43" d="M96.8,30.53L96.8,30.53c0.07-0.12,0.15-0.27,0.22-0.4l0.7-1.22l0.52-0.3l-0.92,1.51l1.04,0.8l-0.52,0.3
				l-0.82-0.67l-0.22,0.37v0.89l-0.43,0.25v-3.48l0.43-0.25V30.53z"/>
		</g>
		<path class="st26" d="M62.38,60.07c0,0.83-0.33,1.48-0.91,1.82c-0.51,0.3-0.86,0.05-0.87-0.75c0-0.82,0.38-1.49,0.91-1.8
			C62.06,59.01,62.38,59.29,62.38,60.07z M60.95,60.93c0,0.64,0.21,0.88,0.53,0.69c0.36-0.21,0.54-0.71,0.54-1.33
			c0-0.6-0.17-0.9-0.53-0.69C61.17,59.78,60.95,60.26,60.95,60.93z"/>
		<path class="st26" d="M64.45,58.87c0,0.83-0.33,1.48-0.91,1.82c-0.51,0.3-0.86,0.05-0.87-0.75c0-0.82,0.38-1.49,0.91-1.8
			C64.13,57.81,64.45,58.09,64.45,58.87z M63.02,59.73c0,0.63,0.21,0.88,0.53,0.69c0.36-0.21,0.54-0.71,0.54-1.33
			c0-0.6-0.17-0.9-0.53-0.69C63.25,58.58,63.02,59.07,63.02,59.73z"/>
		<path class="st26" d="M66.53,57.67c0,0.83-0.33,1.48-0.91,1.82c-0.51,0.3-0.86,0.05-0.87-0.75c0-0.82,0.38-1.49,0.91-1.8
			C66.21,56.62,66.53,56.89,66.53,57.67z M65.1,58.53c0,0.63,0.21,0.87,0.53,0.69c0.36-0.21,0.54-0.71,0.54-1.33
			c0-0.6-0.17-0.9-0.53-0.69C65.33,57.38,65.1,57.87,65.1,58.53z"/>
		<path class="st26" d="M68.6,56.47c0,0.83-0.33,1.48-0.91,1.82c-0.51,0.3-0.86,0.05-0.87-0.75c0-0.82,0.38-1.49,0.91-1.8
			C68.29,55.42,68.6,55.69,68.6,56.47z M67.17,57.33c0,0.64,0.21,0.88,0.54,0.69c0.36-0.21,0.54-0.71,0.54-1.33
			c0-0.6-0.17-0.9-0.53-0.69C67.4,56.18,67.17,56.67,67.17,57.33z"/>
		<path class="st26" d="M72.39,54.28c0,0.83-0.33,1.48-0.91,1.82c-0.51,0.3-0.86,0.05-0.87-0.75c0-0.82,0.38-1.49,0.91-1.8
			C72.08,53.23,72.39,53.5,72.39,54.28z M70.97,55.14c0,0.63,0.21,0.87,0.53,0.69c0.36-0.21,0.54-0.71,0.54-1.33
			c0-0.6-0.17-0.9-0.53-0.69C71.19,54,70.97,54.48,70.97,55.14z"/>
		<path class="st26" d="M74.47,53.08c0,0.83-0.33,1.48-0.91,1.82c-0.51,0.3-0.86,0.05-0.87-0.75c0-0.82,0.38-1.49,0.91-1.8
			C74.15,52.03,74.47,52.31,74.47,53.08z M73.04,53.95c0,0.64,0.21,0.88,0.53,0.69c0.36-0.21,0.54-0.71,0.54-1.33
			c0-0.6-0.17-0.9-0.53-0.69C73.27,52.8,73.04,53.28,73.04,53.95z"/>
		<path class="st26" d="M76.54,51.89c0,0.83-0.33,1.48-0.91,1.82c-0.51,0.3-0.86,0.05-0.87-0.75c0-0.82,0.38-1.49,0.91-1.8
			C76.23,50.83,76.54,51.11,76.54,51.89z M75.12,52.75c0,0.64,0.21,0.88,0.53,0.69c0.36-0.21,0.54-0.71,0.54-1.33
			c0-0.6-0.17-0.9-0.53-0.69C75.34,51.6,75.12,52.08,75.12,52.75z"/>
		<path class="st26" d="M78.62,50.69c0,0.83-0.33,1.48-0.91,1.82c-0.51,0.3-0.86,0.05-0.87-0.75c0-0.82,0.38-1.49,0.91-1.8
			C78.31,49.63,78.62,49.91,78.62,50.69z M77.19,51.55c0,0.63,0.21,0.87,0.53,0.69c0.36-0.21,0.54-0.71,0.54-1.33
			c0-0.6-0.17-0.9-0.53-0.69C77.42,50.4,77.19,50.88,77.19,51.55z"/>
		<path class="st26" d="M82.41,48.5c0,0.83-0.33,1.48-0.91,1.82c-0.51,0.3-0.86,0.05-0.87-0.75c0-0.82,0.38-1.49,0.91-1.8
			C82.1,47.44,82.41,47.72,82.41,48.5z M80.99,49.36c0,0.64,0.21,0.88,0.53,0.69c0.36-0.21,0.54-0.71,0.54-1.33
			c0-0.6-0.17-0.9-0.53-0.69C81.21,48.21,80.99,48.69,80.99,49.36z"/>
		<path class="st26" d="M84.49,47.3c0,0.83-0.33,1.48-0.91,1.82c-0.51,0.3-0.86,0.05-0.87-0.75c0-0.82,0.38-1.49,0.91-1.8
			C84.17,46.25,84.49,46.52,84.49,47.3z M83.06,48.16c0,0.63,0.21,0.87,0.53,0.69c0.36-0.21,0.54-0.7,0.54-1.33
			c0-0.6-0.17-0.9-0.53-0.69C83.29,47.01,83.06,47.5,83.06,48.16z"/>
		<path class="st26" d="M86.57,46.1c0,0.83-0.33,1.48-0.91,1.82c-0.51,0.3-0.86,0.05-0.87-0.75c0-0.82,0.38-1.49,0.91-1.8
			C86.25,45.05,86.57,45.32,86.57,46.1z M85.14,46.96c0,0.64,0.21,0.88,0.53,0.69c0.36-0.21,0.54-0.71,0.54-1.33
			c0-0.6-0.17-0.9-0.53-0.69C85.36,45.81,85.14,46.3,85.14,46.96z"/>
		<path class="st26" d="M88.64,44.9c0,0.83-0.33,1.48-0.91,1.82c-0.51,0.3-0.86,0.05-0.87-0.75c0-0.82,0.38-1.49,0.91-1.8
			C88.33,43.85,88.64,44.12,88.64,44.9z M87.21,45.76c0,0.64,0.21,0.88,0.54,0.69c0.36-0.21,0.54-0.71,0.54-1.33
			c0-0.6-0.17-0.9-0.53-0.69C87.44,44.61,87.21,45.1,87.21,45.76z"/>
		<path class="st26" d="M92.43,42.71c0,0.83-0.33,1.48-0.91,1.82c-0.51,0.3-0.86,0.05-0.87-0.75c0-0.82,0.38-1.49,0.91-1.8
			C92.12,41.66,92.43,41.93,92.43,42.71z M91.01,43.57c0,0.64,0.21,0.88,0.53,0.69c0.36-0.21,0.54-0.71,0.54-1.33
			c0-0.6-0.17-0.9-0.53-0.69C91.23,42.43,91.01,42.91,91.01,43.57z"/>
		<path class="st26" d="M94.51,41.51c0,0.83-0.33,1.48-0.91,1.82c-0.51,0.3-0.86,0.05-0.87-0.75c0-0.82,0.38-1.49,0.91-1.8
			C94.19,40.46,94.51,40.74,94.51,41.51z M93.08,42.38c0,0.64,0.21,0.88,0.53,0.69c0.36-0.21,0.54-0.71,0.54-1.33
			c0-0.6-0.17-0.9-0.53-0.69C93.31,41.23,93.08,41.71,93.08,42.38z"/>
		<path class="st26" d="M96.58,40.32c0,0.83-0.33,1.48-0.91,1.82c-0.51,0.3-0.86,0.05-0.87-0.75c0-0.82,0.38-1.49,0.91-1.8
			C96.27,39.26,96.58,39.54,96.58,40.32z M95.16,41.18c0,0.63,0.21,0.87,0.53,0.69c0.36-0.21,0.54-0.71,0.54-1.33
			c0-0.6-0.17-0.9-0.53-0.69C95.38,40.03,95.16,40.51,95.16,41.18z"/>
		<path class="st26" d="M98.66,39.12c0,0.83-0.33,1.48-0.91,1.82c-0.51,0.3-0.86,0.05-0.87-0.75c0-0.82,0.38-1.49,0.91-1.8
			C98.35,38.06,98.66,38.34,98.66,39.12z M97.23,39.98c0,0.64,0.21,0.88,0.54,0.69c0.36-0.21,0.54-0.71,0.54-1.33
			c0-0.6-0.17-0.9-0.53-0.69C97.46,38.83,97.23,39.31,97.23,39.98z"/>
		<path class="st2" d="M76.43,56.08c0,0.67-0.25,1.19-0.69,1.44c-0.39,0.22-0.65,0.01-0.66-0.64c0-0.66,0.29-1.2,0.69-1.43
			C76.19,55.22,76.43,55.45,76.43,56.08z M75.35,56.74c0,0.51,0.16,0.72,0.4,0.58c0.27-0.16,0.41-0.55,0.41-1.06
			c0-0.49-0.13-0.74-0.4-0.58C75.52,55.81,75.35,56.2,75.35,56.74z"/>
		<path class="st2" d="M77.99,55.18c0,0.67-0.25,1.19-0.69,1.44c-0.39,0.22-0.65,0.01-0.66-0.64c0-0.66,0.29-1.2,0.69-1.43
			C77.75,54.32,77.99,54.55,77.99,55.18z M76.91,55.83c0,0.52,0.16,0.72,0.4,0.58c0.27-0.16,0.4-0.55,0.4-1.06
			c0-0.49-0.13-0.73-0.4-0.58C77.08,54.91,76.91,55.29,76.91,55.83z"/>
		<path class="st2" d="M78.1,56.25l0.85-2.7l0.21-0.12l-0.85,2.7L78.1,56.25z"/>
		<path class="st2" d="M80.6,53.67c0,0.67-0.25,1.19-0.69,1.44c-0.39,0.22-0.65,0.01-0.66-0.64c0-0.66,0.29-1.19,0.69-1.43
			C80.36,52.81,80.6,53.04,80.6,53.67z M79.52,54.33c0,0.51,0.16,0.72,0.4,0.58c0.27-0.16,0.41-0.55,0.41-1.06
			c0-0.49-0.13-0.74-0.4-0.58C79.69,53.4,79.52,53.79,79.52,54.33z"/>
		<path class="st2" d="M82.16,52.77c0,0.67-0.25,1.19-0.69,1.44c-0.39,0.22-0.65,0.01-0.65-0.64c0-0.66,0.29-1.2,0.69-1.43
			C81.92,51.91,82.16,52.14,82.16,52.77z M81.09,53.42c0,0.52,0.16,0.72,0.4,0.58c0.27-0.16,0.4-0.55,0.4-1.06
			c0-0.49-0.12-0.74-0.4-0.58C81.26,52.5,81.09,52.88,81.09,53.42z"/>
		<polygon class="st26" points="68.04,61.84 60.64,66.11 60.64,64.71 68.04,60.44 		"/>
		<polygon class="st26" points="87.15,54.07 60.64,69.37 60.64,67.97 87.15,52.67 		"/>
	</g>
	<g>
		<path class="st44" d="M70.28,69.26c0.4,0.17,0.4,0.83,0,1.47l-2.77,4.37l2.77,1.17c0.4,0.17,0.4,0.83,0,1.47
			c-0.41,0.64-1.06,1.02-1.47,0.85l-3.5-1.48c-0.2-0.08-0.3-0.29-0.3-0.56c0-0.27,0.1-0.59,0.3-0.91l3.5-5.53
			C69.21,69.46,69.87,69.08,70.28,69.26z"/>
		<path class="st45" d="M77.99,64.8c0.41,0.17,0.41,0.83,0,1.47l-2.77,4.37l2.77,1.17c0.41,0.17,0.41,0.83,0,1.47
			c-0.4,0.64-1.06,1.02-1.47,0.85l-3.5-1.48c-0.2-0.08-0.3-0.29-0.3-0.56c0-0.26,0.1-0.59,0.3-0.91l3.5-5.53
			C76.93,65.01,77.59,64.63,77.99,64.8z"/>
		<path class="st46" d="M85.71,60.34c0.41,0.17,0.41,0.83,0,1.47l-2.77,4.37l2.77,1.17c0.41,0.17,0.41,0.83,0,1.47
			c-0.41,0.64-1.06,1.02-1.47,0.85l-3.5-1.48c-0.2-0.09-0.3-0.29-0.3-0.56s0.1-0.59,0.3-0.91l3.5-5.53
			C84.65,60.55,85.31,60.17,85.71,60.34z"/>
	</g>
</g>
</svg>
