<svg height="512pt" viewBox="0 0 512 512" width="512pt" xmlns="http://www.w3.org/2000/svg"><path d="m351.210938 84.65625c0 46.753906-37.902344 84.65625-84.65625 84.65625-46.753907 0-84.65625-37.902344-84.65625-84.65625s37.902343-84.65625 84.65625-84.65625c46.753906 0 84.65625 37.902344 84.65625 84.65625zm0 0" fill="#ddaf89"/><path d="m307.101562 124.777344c-44.550781 0-80.667968-36.117188-80.667968-80.667969 0-13.929687 3.53125-27.039063 9.75-38.472656-31.746094 12.210937-54.285156 42.972656-54.285156 79.019531 0 46.753906 37.902343 84.65625 84.65625 84.65625 36.046874 0 66.808593-22.539062 79.019531-54.285156-11.433594 6.21875-24.542969 9.75-38.472657 9.75zm0 0" fill="#c9a07d"/><g fill="#fff"><path d="m272.652344 133.78125h-12.191406c-12.25 0-22.21875-9.96875-22.21875-22.21875v-6.136719c0-4.144531 3.359374-7.5 7.5-7.5 4.144531 0 7.5 3.355469 7.5 7.5v6.136719c0 3.980469 3.238281 7.21875 7.21875 7.21875h12.191406c3.976562 0 7.214844-3.238281 7.214844-7.21875 0-1.925781-.75-3.738281-2.113282-5.101562l-33.003906-33.003907c-4.195312-4.195312-6.507812-9.773437-6.507812-15.710937 0-12.25 9.96875-22.214844 22.21875-22.214844h12.191406c12.25 0 22.214844 9.964844 22.214844 22.214844v6.140625c0 4.140625-3.355469 7.5-7.5 7.5-4.144532 0-7.5-3.359375-7.5-7.5v-6.140625c0-3.976563-3.238282-7.214844-7.214844-7.214844h-12.191406c-3.980469 0-7.21875 3.238281-7.21875 7.214844 0 1.929687.75 3.742187 2.113281 5.105468l33.003906 33.003907c4.195313 4.195312 6.507813 9.773437 6.507813 15.710937 0 12.246094-9.964844 22.214844-22.214844 22.214844zm0 0"/><path d="m266.554688 50.53125c-4.140626 0-7.5-3.355469-7.5-7.5v-12.789062c0-4.144532 3.359374-7.5 7.5-7.5 4.144531 0 7.5 3.355468 7.5 7.5v12.789062c0 4.144531-3.355469 7.5-7.5 7.5zm0 0"/><path d="m266.554688 146.570312c-4.140626 0-7.5-3.355468-7.5-7.5v-12.789062c0-4.144531 3.359374-7.5 7.5-7.5 4.144531 0 7.5 3.355469 7.5 7.5v12.789062c0 4.144532-3.355469 7.5-7.5 7.5zm0 0"/></g><path d="m77.894531 282.972656c-19.949219 0-39.894531-7.59375-55.082031-22.777344-14.710938-14.714843-22.8125-34.273437-22.8125-55.078124 0-10.0625 8.15625-18.214844 18.214844-18.214844s18.214844 8.152344 18.214844 18.214844c0 11.074218 4.3125 21.484374 12.144531 29.316406 16.167969 16.167968 42.472656 16.167968 58.640625 0 7.109375-7.113282 18.644531-7.113282 25.757812 0 7.113282 7.117187 7.113282 18.648437 0 25.761718-15.1875 15.183594-35.132812 22.777344-55.078125 22.777344zm0 0" fill="#80bbe6"/><path d="m389.800781 512h-25.214843c-14.355469 0-25.996094-11.636719-25.996094-25.996094v-81.5h77.207031v81.5c0 14.359375-11.640625 25.996094-25.996094 25.996094zm0 0" fill="#76acd4"/><path d="m338.589844 477.378906v8.625c0 14.359375 11.636718 25.996094 25.996094 25.996094h25.214843c14.355469 0 25.996094-11.636719 25.996094-25.996094v-8.625zm0 0" fill="#495059"/><path d="m403.960938 198.886719c5.179687 0 9.457031 2.585937 12.015624 6.320312l45.058594 75.136719c7.667969 12.789062 26.199219 12.789062 33.871094 0l11.113281-18.53125c16.609375-27.699219-3.34375-62.925781-35.636719-62.925781zm0 0" fill="#7397da"/><path d="m166.53125 512h-25.214844c-14.355468 0-25.996094-11.636719-25.996094-25.996094v-81.5h77.207032v81.5c0 14.359375-11.640625 25.996094-25.996094 25.996094zm0 0" fill="#76acd4"/><path d="m115.320312 477.378906v8.625c0 14.359375 11.640626 25.996094 25.996094 25.996094h25.214844c14.355469 0 25.996094-11.636719 25.996094-25.996094v-8.625zm0 0" fill="#495059"/><path d="m284.882812 512h-25.214843c-14.355469 0-25.992188-11.636719-25.992188-25.996094v-81.5h77.203125v81.5c0 14.359375-11.640625 25.996094-25.996094 25.996094zm0 0" fill="#76acd4"/><path d="m233.671875 477.378906v8.625c0 14.359375 11.640625 25.996094 25.996094 25.996094h25.214843c14.355469 0 25.996094-11.636719 25.996094-25.996094v-8.625zm0 0" fill="#495059"/><path d="m266.554688 152.46875c171.066406 0 214.945312 59.097656 214.945312 164.019531 0 74.855469-43.878906 137.222657-214.945312 137.222657-171.066407 0-214.945313-62.367188-214.945313-137.222657 0-104.921875 43.882813-164.019531 214.945313-164.019531zm0 0" fill="#80bbe6"/><path d="m266.554688 453.710938c26.4375 0 49.828124-1.492188 70.5-4.289063-205.78125 2.21875-269.949219-199.773437-180.101563-285.054687-81.398437 22.15625-105.34375 74.640624-105.34375 152.121093 0 74.855469 43.882813 137.222657 214.945313 137.222657zm0 0" fill="#76acd4"/><path d="m237.902344 198.886719c-5.179688 0-9.457032 2.585937-12.015625 6.320312l-45.058594 75.136719c-7.667969 12.789062-26.199219 12.789062-33.867187 0l-11.117188-18.53125c-16.609375-27.699219 3.34375-62.925781 35.640625-62.925781zm0 0" fill="#7397da"/><path d="m254.796875 213.339844-4.878906-8.132813c-2.558594-3.734375-6.832031-6.320312-12.015625-6.320312-5.179688 0-9.457032 2.585937-12.015625 6.320312l-22.527344 37.570313h34.761719c6.832031 0 13.160156-3.585938 16.671875-9.441406 3.691406-6.15625 3.691406-13.84375.003906-19.996094zm0 0" fill="#fff"/><path d="m306.746094 290.414062c0-13.851562-14.105469-25.085937-31.503906-25.085937-17.398438 0-31.5 11.234375-31.5 25.085937 0 13.855469 14.101562 25.089844 31.5 25.089844 17.398437 0 31.503906-11.234375 31.503906-25.089844zm0 0" fill="#fff"/><path d="m477.492188 290.414062c0-13.851562-14.101563-25.085937-31.5-25.085937-17.398438 0-31.503907 11.234375-31.503907 25.085937 0 13.855469 14.105469 25.089844 31.503907 25.089844 17.398437 0 31.5-11.234375 31.5-25.089844zm0 0" fill="#fff"/><path d="m293.601562 272.890625c-4.140624 0-7.5-3.355469-7.5-7.5v-11.125c0-4.140625 3.359376-7.5 7.5-7.5 4.144532 0 7.5 3.359375 7.5 7.5v11.125c0 4.140625-3.355468 7.5-7.5 7.5zm0 0" fill="#495059"/><path d="m427.632812 272.890625c-4.140624 0-7.5-3.355469-7.5-7.5v-11.125c0-4.140625 3.359376-7.5 7.5-7.5 4.144532 0 7.5 3.359375 7.5 7.5v11.125c0 4.140625-3.355468 7.5-7.5 7.5zm0 0" fill="#495059"/><path d="m360.617188 345.066406c30.167968 0 43.636718-6.875 43.339843-23.203125-.480469-26.144531-19.402343-60.753906-43.339843-60.753906-23.933594 0-42.859376 34.609375-43.335938 60.753906-.300781 16.328125 13.167969 23.203125 43.335938 23.203125zm0 0" fill="#7397da"/><path d="m348.101562 321.203125c-4.144531 0-7.5-3.359375-7.5-7.5v-10.613281c0-4.144532 3.355469-7.5 7.5-7.5 4.140626 0 7.5 3.355468 7.5 7.5v10.613281c0 4.140625-3.359374 7.5-7.5 7.5zm0 0" fill="#6988c4"/><path d="m373.136719 321.203125c-4.144531 0-7.5-3.359375-7.5-7.5v-10.613281c0-4.144532 3.355469-7.5 7.5-7.5s7.5 3.355468 7.5 7.5v10.613281c0 4.140625-3.359375 7.5-7.5 7.5zm0 0" fill="#6988c4"/></svg>